<?xml version="1.0" encoding="UTF-8"?>
<svg xmlns="http://www.w3.org/2000/svg" xmlns:xlink="http://www.w3.org/1999/xlink" width="36pt" height="36pt" viewBox="0 0 36 36" version="1.1">
<g id="surface16824">
<path style=" stroke:none;fill-rule:nonzero;fill:rgb(95.686275%,26.274511%,21.176471%);fill-opacity:1;" d="M 17.738281 18.671875 C 16.988281 17.464844 16.445312 16.464844 15.695312 14.582031 C 14.421875 11.398438 23.429688 8.523438 19.777344 3 C 21.359375 6.816406 14.09375 9.175781 13.417969 12.355469 C 12.800781 15.277344 17.734375 18.671875 17.738281 18.671875 Z M 17.738281 18.671875 "/>
<path style=" stroke:none;fill-rule:nonzero;fill:rgb(95.686275%,26.274511%,21.176471%);fill-opacity:1;" d="M 17.910156 12.953125 C 17.765625 14.839844 19.582031 15.84375 19.632812 17.222656 C 19.675781 18.347656 18.546875 19.28125 18.546875 19.28125 C 18.546875 19.28125 20.59375 18.878906 21.230469 17.167969 C 21.941406 15.265625 19.855469 13.964844 20.070312 12.445312 C 20.269531 10.992188 24.59375 8.285156 24.59375 8.285156 C 24.59375 8.285156 18.234375 8.707031 17.910156 12.953125 Z M 17.910156 12.953125 "/>
<path style=" stroke:none;fill-rule:nonzero;fill:rgb(8.235294%,39.607844%,75.294119%);fill-opacity:1;" d="M 24.0625 18.792969 C 25.378906 18.496094 26.488281 19.332031 26.488281 20.296875 C 26.488281 22.472656 23.472656 24.53125 23.472656 24.53125 C 23.472656 24.53125 28.140625 23.972656 28.140625 20.402344 C 28.140625 18.039062 25.847656 17.449219 24.0625 18.792969 Z M 24.0625 18.792969 "/>
<path style=" stroke:none;fill-rule:nonzero;fill:rgb(8.235294%,39.607844%,75.294119%);fill-opacity:1;" d="M 21.847656 20.546875 C 21.847656 20.546875 23.300781 19.507812 23.691406 19.121094 C 20.117188 19.878906 11.960938 19.980469 11.960938 19.320312 C 11.960938 18.714844 14.59375 18.09375 14.59375 18.09375 C 14.59375 18.09375 8.761719 18.007812 8.761719 19.730469 C 8.761719 21.519531 16.394531 21.648438 21.847656 20.546875 Z M 21.847656 20.546875 "/>
<path style=" stroke:none;fill-rule:nonzero;fill:rgb(8.235294%,39.607844%,75.294119%);fill-opacity:1;" d="M 20.953125 22.179688 C 17.570312 23.300781 11.339844 22.941406 13.1875 21.433594 C 12.289062 21.433594 10.957031 22.15625 10.957031 22.851562 C 10.957031 24.242188 17.691406 25.320312 22.679688 23.277344 Z M 20.953125 22.179688 "/>
<path style=" stroke:none;fill-rule:nonzero;fill:rgb(8.235294%,39.607844%,75.294119%);fill-opacity:1;" d="M 14.015625 24.554688 C 12.789062 24.554688 11.992188 25.34375 11.992188 25.921875 C 11.992188 27.714844 19.3125 27.894531 22.214844 26.074219 L 20.371094 24.851562 C 18.203125 25.804688 12.761719 25.933594 14.015625 24.554688 Z M 14.015625 24.554688 "/>
<path style=" stroke:none;fill-rule:nonzero;fill:rgb(8.235294%,39.607844%,75.294119%);fill-opacity:1;" d="M 27.210938 27.472656 C 27.210938 26.773438 26.417969 26.441406 26.136719 26.28125 C 27.808594 30.3125 9.398438 30 9.398438 27.621094 C 9.398438 27.082031 10.753906 26.550781 12.007812 26.800781 L 10.941406 26.171875 C 8.445312 25.78125 6.75 26.878906 6.75 27.761719 C 6.75 31.890625 27.210938 31.691406 27.210938 27.472656 Z M 27.210938 27.472656 "/>
<path style=" stroke:none;fill-rule:nonzero;fill:rgb(8.235294%,39.607844%,75.294119%);fill-opacity:1;" d="M 29.25 28.953125 C 26.140625 32.023438 18.253906 33.144531 10.328125 31.246094 C 18.253906 34.621094 29.210938 32.722656 29.25 28.953125 Z M 29.25 28.953125 "/>
</g>
</svg>
