<?xml version="1.0" encoding="UTF-8"?>
<svg xmlns="http://www.w3.org/2000/svg" xmlns:xlink="http://www.w3.org/1999/xlink" width="108pt" height="108pt" viewBox="0 0 108 108" version="1.1">
<g id="surface16903">
<path style=" stroke:none;fill-rule:nonzero;fill:rgb(95.686275%,26.274511%,21.176471%);fill-opacity:1;" d="M 53.210938 56.019531 C 50.96875 52.398438 49.339844 49.398438 47.082031 43.746094 C 43.265625 34.199219 70.289062 25.574219 59.332031 8.996094 C 64.082031 20.449219 42.285156 27.527344 40.257812 37.0625 C 38.40625 45.832031 53.203125 56.019531 53.210938 56.019531 Z M 53.210938 56.019531 "/>
<path style=" stroke:none;fill-rule:nonzero;fill:rgb(95.686275%,26.274511%,21.176471%);fill-opacity:1;" d="M 53.726562 38.859375 C 53.292969 44.519531 58.742188 47.535156 58.898438 51.671875 C 59.023438 55.039062 55.640625 57.84375 55.640625 57.84375 C 55.640625 57.84375 61.78125 56.636719 63.695312 51.503906 C 65.820312 45.800781 59.570312 41.898438 60.210938 37.332031 C 60.8125 32.972656 73.78125 24.859375 73.78125 24.859375 C 73.78125 24.859375 54.699219 26.125 53.726562 38.859375 Z M 53.726562 38.859375 "/>
<path style=" stroke:none;fill-rule:nonzero;fill:rgb(8.235294%,39.607844%,75.294119%);fill-opacity:1;" d="M 72.1875 56.375 C 76.136719 55.488281 79.464844 58 79.464844 60.894531 C 79.464844 67.421875 70.414062 73.59375 70.414062 73.59375 C 70.414062 73.59375 84.421875 71.921875 84.421875 61.207031 C 84.421875 54.121094 77.542969 52.347656 72.1875 56.375 Z M 72.1875 56.375 "/>
<path style=" stroke:none;fill-rule:nonzero;fill:rgb(8.235294%,39.607844%,75.294119%);fill-opacity:1;" d="M 65.539062 61.640625 C 65.539062 61.640625 69.90625 58.527344 71.070312 57.359375 C 60.355469 59.632812 35.886719 59.941406 35.886719 57.964844 C 35.886719 56.144531 43.777344 54.277344 43.777344 54.277344 C 43.777344 54.277344 26.285156 54.027344 26.285156 59.1875 C 26.285156 64.5625 49.179688 64.949219 65.539062 61.640625 Z M 65.539062 61.640625 "/>
<path style=" stroke:none;fill-rule:nonzero;fill:rgb(8.235294%,39.607844%,75.294119%);fill-opacity:1;" d="M 62.855469 66.535156 C 52.707031 69.90625 34.023438 68.828125 39.558594 64.300781 C 36.863281 64.300781 32.867188 66.46875 32.867188 68.550781 C 32.867188 72.730469 53.074219 75.957031 68.035156 69.835938 Z M 62.855469 66.535156 "/>
<path style=" stroke:none;fill-rule:nonzero;fill:rgb(8.235294%,39.607844%,75.294119%);fill-opacity:1;" d="M 42.042969 73.664062 C 38.363281 73.664062 35.980469 76.035156 35.980469 77.761719 C 35.980469 83.140625 57.941406 83.683594 66.640625 78.222656 L 61.109375 74.550781 C 54.609375 77.410156 38.28125 77.804688 42.042969 73.664062 Z M 42.042969 73.664062 "/>
<path style=" stroke:none;fill-rule:nonzero;fill:rgb(8.235294%,39.607844%,75.294119%);fill-opacity:1;" d="M 81.632812 82.421875 C 81.632812 80.316406 79.257812 79.324219 78.40625 78.847656 C 83.421875 90.9375 28.195312 90 28.195312 82.863281 C 28.195312 81.242188 32.261719 79.652344 36.019531 80.402344 L 32.824219 78.515625 C 25.335938 77.339844 20.25 80.632812 20.25 83.289062 C 20.25 95.671875 81.632812 95.074219 81.632812 82.421875 Z M 81.632812 82.421875 "/>
<path style=" stroke:none;fill-rule:nonzero;fill:rgb(8.235294%,39.607844%,75.294119%);fill-opacity:1;" d="M 87.75 86.859375 C 78.421875 96.074219 54.765625 99.429688 30.980469 93.738281 C 54.765625 103.867188 87.636719 98.164062 87.75 86.859375 Z M 87.75 86.859375 "/>
</g>
</svg>
