<?xml version="1.0" encoding="UTF-8"?>
<svg xmlns="http://www.w3.org/2000/svg" xmlns:xlink="http://www.w3.org/1999/xlink" width="72pt" height="72pt" viewBox="0 0 72 72" version="1.1">
<g id="surface16868">
<path style=" stroke:none;fill-rule:nonzero;fill:rgb(95.686275%,26.274511%,21.176471%);fill-opacity:1;" d="M 35.476562 37.347656 C 33.976562 34.933594 32.890625 32.933594 31.386719 29.164062 C 28.84375 22.800781 46.859375 17.050781 39.554688 6 C 42.722656 13.632812 28.191406 18.351562 26.839844 24.707031 C 25.605469 30.554688 35.46875 37.347656 35.476562 37.347656 Z M 35.476562 37.347656 "/>
<path style=" stroke:none;fill-rule:nonzero;fill:rgb(95.686275%,26.274511%,21.176471%);fill-opacity:1;" d="M 35.816406 25.90625 C 35.527344 29.679688 39.160156 31.691406 39.265625 34.449219 C 39.347656 36.691406 37.09375 38.5625 37.09375 38.5625 C 37.09375 38.5625 41.1875 37.757812 42.464844 34.335938 C 43.882812 30.535156 39.710938 27.929688 40.140625 24.886719 C 40.542969 21.980469 49.1875 16.574219 49.1875 16.574219 C 49.1875 16.574219 36.464844 17.417969 35.816406 25.90625 Z M 35.816406 25.90625 "/>
<path style=" stroke:none;fill-rule:nonzero;fill:rgb(8.235294%,39.607844%,75.294119%);fill-opacity:1;" d="M 48.125 37.582031 C 50.757812 36.992188 52.976562 38.667969 52.976562 40.597656 C 52.976562 44.949219 46.945312 49.0625 46.945312 49.0625 C 46.945312 49.0625 56.28125 47.949219 56.28125 40.804688 C 56.28125 36.078125 51.695312 34.898438 48.125 37.582031 Z M 48.125 37.582031 "/>
<path style=" stroke:none;fill-rule:nonzero;fill:rgb(8.235294%,39.607844%,75.294119%);fill-opacity:1;" d="M 43.695312 41.09375 C 43.695312 41.09375 46.605469 39.019531 47.378906 38.238281 C 40.234375 39.757812 23.921875 39.960938 23.921875 38.644531 C 23.921875 37.429688 29.183594 36.1875 29.183594 36.1875 C 29.183594 36.1875 17.523438 36.019531 17.523438 39.457031 C 17.523438 43.042969 32.785156 43.300781 43.695312 41.09375 Z M 43.695312 41.09375 "/>
<path style=" stroke:none;fill-rule:nonzero;fill:rgb(8.235294%,39.607844%,75.294119%);fill-opacity:1;" d="M 41.902344 44.355469 C 35.140625 46.605469 22.679688 45.886719 26.371094 42.867188 C 24.574219 42.867188 21.910156 44.3125 21.910156 45.699219 C 21.910156 48.484375 35.382812 50.636719 45.355469 46.558594 Z M 41.902344 44.355469 "/>
<path style=" stroke:none;fill-rule:nonzero;fill:rgb(8.235294%,39.607844%,75.294119%);fill-opacity:1;" d="M 28.027344 49.109375 C 25.574219 49.109375 23.988281 50.691406 23.988281 51.839844 C 23.988281 55.429688 38.625 55.789062 44.425781 52.148438 L 40.738281 49.699219 C 36.40625 51.605469 25.519531 51.867188 28.027344 49.109375 Z M 28.027344 49.109375 "/>
<path style=" stroke:none;fill-rule:nonzero;fill:rgb(8.235294%,39.607844%,75.294119%);fill-opacity:1;" d="M 54.421875 54.949219 C 54.421875 53.542969 52.839844 52.882812 52.273438 52.566406 C 55.613281 60.625 18.796875 60 18.796875 55.242188 C 18.796875 54.160156 21.507812 53.101562 24.011719 53.601562 L 21.882812 52.34375 C 16.890625 51.5625 13.5 53.753906 13.5 55.527344 C 13.5 63.78125 54.421875 63.382812 54.421875 54.949219 Z M 54.421875 54.949219 "/>
<path style=" stroke:none;fill-rule:nonzero;fill:rgb(8.235294%,39.607844%,75.294119%);fill-opacity:1;" d="M 58.5 57.90625 C 52.28125 64.046875 36.511719 66.285156 20.652344 62.492188 C 36.511719 69.246094 58.425781 65.441406 58.5 57.90625 Z M 58.5 57.90625 "/>
</g>
</svg>
