<?xml version="1.0" encoding="UTF-8"?>
<svg xmlns="http://www.w3.org/2000/svg" xmlns:xlink="http://www.w3.org/1999/xlink" width="72pt" height="72pt" viewBox="0 0 72 72" version="1.1">
<g id="surface45406">
<path style=" stroke:none;fill-rule:nonzero;fill:rgb(12.941177%,58.823532%,95.294118%);fill-opacity:1;" d="M 54 49.050781 L 52.5 58.5 C 52.5 61.800781 44.851562 64.5 36 64.5 C 27.148438 64.5 19.5 61.800781 19.5 58.5 L 18 49.050781 C 17.851562 48.449219 18.449219 47.851562 19.199219 48.148438 C 23.699219 50.101562 30 51 36 51 C 42 51 48.300781 50.101562 52.800781 48.148438 C 53.398438 47.851562 54.148438 48.449219 54 49.050781 Z M 61.5 15 C 61.5 15.300781 61.5 15.449219 61.351562 15.75 L 57 40.5 C 57 44.699219 47.699219 48 36.148438 48 C 24.601562 48 15 44.699219 15 40.5 L 10.648438 15.75 C 10.5 15.449219 10.5 15.300781 10.5 15 C 10.5 10.800781 21.898438 7.5 36 7.5 C 50.101562 7.5 61.5 10.800781 61.5 15 Z M 43.5 34.5 C 43.5 30.300781 40.199219 27 36 27 C 31.800781 27 28.5 30.300781 28.5 34.5 C 28.5 38.699219 31.800781 42 36 42 C 40.199219 42 43.5 38.699219 43.5 34.5 Z M 53.699219 15 C 53.699219 12.449219 45.75 10.5 36 10.5 C 26.25 10.5 18.300781 12.449219 18.300781 15 C 18.300781 17.550781 26.25 19.5 36 19.5 C 45.75 19.5 53.699219 17.550781 53.699219 15 Z M 36 37.5 C 37.648438 37.5 39 36.148438 39 34.5 C 39 32.851562 37.648438 31.5 36 31.5 C 34.351562 31.5 33 32.851562 33 34.5 C 33 36.148438 34.351562 37.5 36 37.5 Z M 36 37.5 "/>
</g>
</svg>
