<?xml version="1.0" encoding="UTF-8"?>
<svg xmlns="http://www.w3.org/2000/svg" xmlns:xlink="http://www.w3.org/1999/xlink" width="108pt" height="108pt" viewBox="0 0 108 108" version="1.1">
<g id="surface45422">
<path style=" stroke:none;fill-rule:nonzero;fill:rgb(12.941177%,58.823532%,95.294118%);fill-opacity:1;" d="M 81 73.574219 L 78.75 87.75 C 78.75 92.699219 67.273438 96.75 54 96.75 C 40.726562 96.75 29.25 92.699219 29.25 87.75 L 27 73.574219 C 26.773438 72.675781 27.675781 71.773438 28.800781 72.226562 C 35.550781 75.148438 45 76.5 54 76.5 C 63 76.5 72.449219 75.148438 79.199219 72.226562 C 80.101562 71.773438 81.226562 72.675781 81 73.574219 Z M 92.25 22.5 C 92.25 22.949219 92.25 23.175781 92.023438 23.625 L 85.5 60.75 C 85.5 67.050781 71.550781 72 54.226562 72 C 36.898438 72 22.5 67.050781 22.5 60.75 L 15.976562 23.625 C 15.75 23.175781 15.75 22.949219 15.75 22.5 C 15.75 16.199219 32.851562 11.25 54 11.25 C 75.148438 11.25 92.25 16.199219 92.25 22.5 Z M 65.25 51.75 C 65.25 45.449219 60.300781 40.5 54 40.5 C 47.699219 40.5 42.75 45.449219 42.75 51.75 C 42.75 58.050781 47.699219 63 54 63 C 60.300781 63 65.25 58.050781 65.25 51.75 Z M 80.550781 22.5 C 80.550781 18.675781 68.625 15.75 54 15.75 C 39.375 15.75 27.449219 18.675781 27.449219 22.5 C 27.449219 26.324219 39.375 29.25 54 29.25 C 68.625 29.25 80.550781 26.324219 80.550781 22.5 Z M 54 56.25 C 56.476562 56.25 58.5 54.226562 58.5 51.75 C 58.5 49.273438 56.476562 47.25 54 47.25 C 51.523438 47.25 49.5 49.273438 49.5 51.75 C 49.5 54.226562 51.523438 56.25 54 56.25 Z M 54 56.25 "/>
</g>
</svg>
