<?xml version="1.0" encoding="UTF-8"?>
<svg xmlns="http://www.w3.org/2000/svg" xmlns:xlink="http://www.w3.org/1999/xlink" width="36pt" height="36pt" viewBox="0 0 36 36" version="1.1">
<g id="surface45390">
<path style=" stroke:none;fill-rule:nonzero;fill:rgb(12.941177%,58.823532%,95.294118%);fill-opacity:1;" d="M 27 24.523438 L 26.25 29.25 C 26.25 30.898438 22.425781 32.25 18 32.25 C 13.574219 32.25 9.75 30.898438 9.75 29.25 L 9 24.523438 C 8.925781 24.226562 9.226562 23.925781 9.601562 24.074219 C 11.851562 25.050781 15 25.5 18 25.5 C 21 25.5 24.148438 25.050781 26.398438 24.074219 C 26.699219 23.925781 27.074219 24.226562 27 24.523438 Z M 30.75 7.5 C 30.75 7.648438 30.75 7.726562 30.675781 7.875 L 28.5 20.25 C 28.5 22.351562 23.851562 24 18.074219 24 C 12.300781 24 7.5 22.351562 7.5 20.25 L 5.324219 7.875 C 5.25 7.726562 5.25 7.648438 5.25 7.5 C 5.25 5.398438 10.949219 3.75 18 3.75 C 25.050781 3.75 30.75 5.398438 30.75 7.5 Z M 21.75 17.25 C 21.75 15.148438 20.101562 13.5 18 13.5 C 15.898438 13.5 14.25 15.148438 14.25 17.25 C 14.25 19.351562 15.898438 21 18 21 C 20.101562 21 21.75 19.351562 21.75 17.25 Z M 26.851562 7.5 C 26.851562 6.226562 22.875 5.25 18 5.25 C 13.125 5.25 9.148438 6.226562 9.148438 7.5 C 9.148438 8.773438 13.125 9.75 18 9.75 C 22.875 9.75 26.851562 8.773438 26.851562 7.5 Z M 18 18.75 C 18.824219 18.75 19.5 18.074219 19.5 17.25 C 19.5 16.425781 18.824219 15.75 18 15.75 C 17.175781 15.75 16.5 16.425781 16.5 17.25 C 16.5 18.074219 17.175781 18.75 18 18.75 Z M 18 18.75 "/>
</g>
</svg>
