<?xml version="1.0" encoding="UTF-8"?>
<svg xmlns="http://www.w3.org/2000/svg" xmlns:xlink="http://www.w3.org/1999/xlink" width="36pt" height="36pt" viewBox="0 0 36 36" version="1.1">
<g id="surface6936">
<path style=" stroke:none;fill-rule:nonzero;fill:rgb(90.196079%,31.764707%,0%);fill-opacity:1;" d="M 30.75 3.75 L 5.25 3.75 L 7.5 29.25 L 18 32.25 L 28.5 29.25 Z M 30.75 3.75 "/>
<path style=" stroke:none;fill-rule:nonzero;fill:rgb(100%,42.745098%,0%);fill-opacity:1;" d="M 18 6 L 18 29.925781 L 26.398438 27.523438 L 28.273438 6 Z M 18 6 "/>
<path style=" stroke:none;fill-rule:nonzero;fill:rgb(100%,100%,100%);fill-opacity:1;" d="M 18 18.75 L 18 15.75 L 24.449219 15.75 L 23.925781 24.375 L 18 26.324219 L 18 23.175781 L 21.074219 22.125 L 21.300781 18.75 Z M 24.675781 12.75 L 24.898438 9.75 L 18 9.75 L 18 12.75 Z M 24.675781 12.75 "/>
<path style=" stroke:none;fill-rule:nonzero;fill:rgb(93.333334%,93.333334%,93.333334%);fill-opacity:1;" d="M 18 23.175781 L 18 26.324219 L 12.074219 24.375 L 11.773438 20.25 L 14.773438 20.25 L 14.925781 22.125 Z M 14.324219 12.75 L 18 12.75 L 18 9.75 L 11.175781 9.75 L 11.699219 18.75 L 18 18.75 L 18 15.75 L 14.550781 15.75 Z M 14.324219 12.75 "/>
</g>
</svg>
