<?xml version="1.0" encoding="UTF-8"?>
<svg xmlns="http://www.w3.org/2000/svg" xmlns:xlink="http://www.w3.org/1999/xlink" width="72pt" height="72pt" viewBox="0 0 72 72" version="1.1">
<g id="surface6964">
<path style=" stroke:none;fill-rule:nonzero;fill:rgb(90.196079%,31.764707%,0%);fill-opacity:1;" d="M 61.5 7.5 L 10.5 7.5 L 15 58.5 L 36 64.5 L 57 58.5 Z M 61.5 7.5 "/>
<path style=" stroke:none;fill-rule:nonzero;fill:rgb(100%,42.745098%,0%);fill-opacity:1;" d="M 36 12 L 36 59.851562 L 52.800781 55.050781 L 56.550781 12 Z M 36 12 "/>
<path style=" stroke:none;fill-rule:nonzero;fill:rgb(100%,100%,100%);fill-opacity:1;" d="M 36 37.5 L 36 31.5 L 48.898438 31.5 L 47.851562 48.75 L 36 52.648438 L 36 46.351562 L 42.148438 44.25 L 42.601562 37.5 Z M 49.351562 25.5 L 49.800781 19.5 L 36 19.5 L 36 25.5 Z M 49.351562 25.5 "/>
<path style=" stroke:none;fill-rule:nonzero;fill:rgb(93.333334%,93.333334%,93.333334%);fill-opacity:1;" d="M 36 46.351562 L 36 52.648438 L 24.148438 48.75 L 23.550781 40.5 L 29.550781 40.5 L 29.851562 44.25 Z M 28.648438 25.5 L 36 25.5 L 36 19.5 L 22.351562 19.5 L 23.398438 37.5 L 36 37.5 L 36 31.5 L 29.101562 31.5 Z M 28.648438 25.5 "/>
</g>
</svg>
