<?xml version="1.0" encoding="UTF-8"?>
<svg xmlns="http://www.w3.org/2000/svg" xmlns:xlink="http://www.w3.org/1999/xlink" width="108pt" height="108pt" viewBox="0 0 108 108" version="1.1">
<g id="surface6987">
<path style=" stroke:none;fill-rule:nonzero;fill:rgb(90.196079%,31.764707%,0%);fill-opacity:1;" d="M 92.25 11.25 L 15.75 11.25 L 22.5 87.75 L 54 96.75 L 85.5 87.75 Z M 92.25 11.25 "/>
<path style=" stroke:none;fill-rule:nonzero;fill:rgb(100%,42.745098%,0%);fill-opacity:1;" d="M 54 18 L 54 89.773438 L 79.199219 82.574219 L 84.824219 18 Z M 54 18 "/>
<path style=" stroke:none;fill-rule:nonzero;fill:rgb(100%,100%,100%);fill-opacity:1;" d="M 54 56.25 L 54 47.25 L 73.351562 47.25 L 71.773438 73.125 L 54 78.976562 L 54 69.523438 L 63.226562 66.375 L 63.898438 56.25 Z M 74.023438 38.25 L 74.699219 29.25 L 54 29.25 L 54 38.25 Z M 74.023438 38.25 "/>
<path style=" stroke:none;fill-rule:nonzero;fill:rgb(93.333334%,93.333334%,93.333334%);fill-opacity:1;" d="M 54 69.523438 L 54 78.976562 L 36.226562 73.125 L 35.324219 60.75 L 44.324219 60.75 L 44.773438 66.375 Z M 42.976562 38.25 L 54 38.25 L 54 29.25 L 33.523438 29.25 L 35.101562 56.25 L 54 56.25 L 54 47.25 L 43.648438 47.25 Z M 42.976562 38.25 "/>
</g>
</svg>
