<?xml version="1.0" encoding="UTF-8"?>
<svg xmlns="http://www.w3.org/2000/svg" xmlns:xlink="http://www.w3.org/1999/xlink" width="108pt" height="108pt" viewBox="0 0 108 108" version="1.1">
<defs>
<linearGradient id="linear0" gradientUnits="userSpaceOnUse" x1="16.329901" y1="-2.7481" x2="32.292702" y2="41.1092" gradientTransform="matrix(2.25,0,0,2.25,0,0)">
<stop offset="0" style="stop-color:rgb(16.470589%,64.313728%,95.686275%);stop-opacity:1;"/>
<stop offset="1" style="stop-color:rgb(0%,47.843137%,85.09804%);stop-opacity:1;"/>
</linearGradient>
<filter id="alpha" filterUnits="objectBoundingBox" x="0%" y="0%" width="100%" height="100%">
  <feColorMatrix type="matrix" in="SourceGraphic" values="0 0 0 0 1 0 0 0 0 1 0 0 0 0 1 0 0 0 1 0"/>
</filter>
<mask id="mask0">
  <g filter="url(#alpha)">
<rect x="0" y="0" width="108" height="108" style="fill:rgb(0%,0%,0%);fill-opacity:0.05;stroke:none;"/>
  </g>
</mask>
<clipPath id="clip1">
  <rect x="0" y="0" width="108" height="108"/>
</clipPath>
<g id="surface10748" clip-path="url(#clip1)">
<path style=" stroke:none;fill-rule:nonzero;fill:rgb(0%,0%,0%);fill-opacity:1;" d="M 74.476562 29.25 L 73.351562 47.25 L 71.773438 73.125 L 54 78.976562 L 36.226562 73.125 L 35.550781 60.75 L 44.550781 60.75 L 44.773438 66.375 L 54 69.523438 L 63.226562 66.375 L 63.898438 56.25 L 44.101562 56.25 L 43.648438 47.25 L 64.351562 47.25 L 65.023438 38.25 L 33.976562 38.25 L 33.300781 29.25 L 74.476562 29.25 M 76.867188 27 L 30.875 27 L 31.058594 29.417969 L 31.730469 38.417969 L 31.886719 40.5 L 62.597656 40.5 L 62.261719 45 L 41.285156 45 L 41.402344 47.363281 L 41.851562 56.363281 L 41.960938 58.5 L 33.175781 58.5 L 33.304688 60.871094 L 33.980469 73.246094 L 34.0625 74.78125 L 35.523438 75.261719 L 53.296875 81.113281 L 54 81.34375 L 54.703125 81.113281 L 72.480469 75.261719 L 73.929688 74.785156 L 74.019531 73.261719 L 75.59375 47.386719 L 76.71875 29.390625 Z M 46.710938 58.5 L 61.496094 58.5 L 61.078125 64.730469 L 54 67.148438 L 46.960938 64.742188 L 46.796875 60.660156 Z M 46.710938 58.5 "/>
</g>
<mask id="mask1">
  <g filter="url(#alpha)">
<rect x="0" y="0" width="108" height="108" style="fill:rgb(0%,0%,0%);fill-opacity:0.07;stroke:none;"/>
  </g>
</mask>
<clipPath id="clip2">
  <rect x="0" y="0" width="108" height="108"/>
</clipPath>
<g id="surface10752" clip-path="url(#clip2)">
<path style=" stroke:none;fill-rule:nonzero;fill:rgb(0%,0%,0%);fill-opacity:1;" d="M 74.476562 29.25 L 73.351562 47.25 L 71.773438 73.125 L 54 78.976562 L 36.226562 73.125 L 35.550781 60.75 L 44.550781 60.75 L 44.773438 66.375 L 54 69.523438 L 63.226562 66.375 L 63.898438 56.25 L 44.101562 56.25 L 43.648438 47.25 L 64.351562 47.25 L 65.023438 38.25 L 33.976562 38.25 L 33.300781 29.25 L 74.476562 29.25 M 75.671875 28.125 L 32.085938 28.125 L 32.175781 29.332031 L 32.851562 38.332031 L 32.929688 39.375 L 63.8125 39.375 L 63.304688 46.125 L 42.464844 46.125 L 42.523438 47.304688 L 42.976562 56.304688 L 43.027344 57.375 L 62.699219 57.375 L 62.152344 65.550781 L 54 68.335938 L 45.867188 65.558594 L 45.675781 60.703125 L 45.628906 59.625 L 34.363281 59.625 L 34.425781 60.8125 L 35.101562 73.1875 L 35.144531 73.953125 L 35.875 74.195312 L 53.648438 80.042969 L 54 80.160156 L 54.351562 80.042969 L 72.125 74.195312 L 72.851562 73.957031 L 72.898438 73.191406 L 74.472656 47.316406 L 75.597656 29.320312 Z M 75.671875 28.125 "/>
</g>
</defs>
<g id="surface10739">
<path style=" stroke:none;fill-rule:nonzero;fill:url(#linear0);" d="M 16.183594 16.144531 L 22.09375 83.128906 C 22.339844 85.910156 24.273438 88.257812 26.960938 89.027344 L 50.910156 95.867188 C 52.929688 96.445312 55.070312 96.445312 57.089844 95.867188 L 81.035156 89.027344 C 83.722656 88.257812 85.660156 85.914062 85.90625 83.128906 L 91.816406 16.144531 C 92.050781 13.511719 89.976562 11.25 87.335938 11.25 L 20.664062 11.25 C 18.023438 11.25 15.949219 13.511719 16.183594 16.144531 Z M 16.183594 16.144531 "/>
<path style=" stroke:none;fill-rule:nonzero;fill:rgb(20.784314%,75.686276%,94.509804%);fill-opacity:1;" d="M 54 18 L 54 89.773438 L 76.222656 83.425781 C 78.015625 82.914062 79.304688 81.347656 79.46875 79.492188 L 84.609375 20.445312 C 84.726562 19.128906 83.691406 18 82.371094 18 Z M 54 18 "/>
<path style=" stroke:none;fill-rule:nonzero;fill:rgb(100%,100%,100%);fill-opacity:1;" d="M 74.476562 29.25 L 54 29.25 L 54 38.25 L 65.023438 38.25 L 64.351562 47.25 L 54 47.25 L 54 56.25 L 63.898438 56.25 L 63.226562 66.375 L 54 69.523438 L 54 78.976562 L 71.773438 73.125 L 73.351562 47.25 Z M 74.476562 29.25 "/>
<path style=" stroke:none;fill-rule:nonzero;fill:rgb(83.92157%,87.843138%,91.37255%);fill-opacity:1;" d="M 54 29.25 L 54 38.25 L 33.976562 38.25 L 33.300781 29.25 Z M 43.648438 47.25 L 44.101562 56.25 L 54 56.25 L 54 47.25 Z M 44.550781 60.75 L 35.550781 60.75 L 36.226562 73.125 L 54 78.976562 L 54 69.523438 L 44.773438 66.375 Z M 44.550781 60.75 "/>
<use xlink:href="#surface10748" mask="url(#mask0)"/>
<use xlink:href="#surface10752" mask="url(#mask1)"/>
</g>
</svg>
