<?xml version="1.0" encoding="UTF-8"?>
<svg xmlns="http://www.w3.org/2000/svg" xmlns:xlink="http://www.w3.org/1999/xlink" width="36pt" height="36pt" viewBox="0 0 36 36" version="1.1">
<defs>
<linearGradient id="linear0" gradientUnits="userSpaceOnUse" x1="16.329901" y1="-2.7481" x2="32.292702" y2="41.1092" gradientTransform="matrix(0.75,0,0,0.75,0,0)">
<stop offset="0" style="stop-color:rgb(16.470589%,64.313728%,95.686275%);stop-opacity:1;"/>
<stop offset="1" style="stop-color:rgb(0%,47.843137%,85.09804%);stop-opacity:1;"/>
</linearGradient>
<filter id="alpha" filterUnits="objectBoundingBox" x="0%" y="0%" width="100%" height="100%">
  <feColorMatrix type="matrix" in="SourceGraphic" values="0 0 0 0 1 0 0 0 0 1 0 0 0 0 1 0 0 0 1 0"/>
</filter>
<mask id="mask0">
  <g filter="url(#alpha)">
<rect x="0" y="0" width="36" height="36" style="fill:rgb(0%,0%,0%);fill-opacity:0.05;stroke:none;"/>
  </g>
</mask>
<clipPath id="clip1">
  <rect x="0" y="0" width="36" height="36"/>
</clipPath>
<g id="surface10585" clip-path="url(#clip1)">
<path style=" stroke:none;fill-rule:nonzero;fill:rgb(0%,0%,0%);fill-opacity:1;" d="M 24.824219 9.75 L 24.449219 15.75 L 23.925781 24.375 L 18 26.324219 L 12.074219 24.375 L 11.851562 20.25 L 14.851562 20.25 L 14.925781 22.125 L 18 23.175781 L 21.074219 22.125 L 21.300781 18.75 L 14.699219 18.75 L 14.550781 15.75 L 21.449219 15.75 L 21.675781 12.75 L 11.324219 12.75 L 11.101562 9.75 L 24.824219 9.75 M 25.621094 9 L 10.292969 9 L 10.351562 9.804688 L 10.578125 12.804688 L 10.628906 13.5 L 20.867188 13.5 L 20.753906 15 L 13.761719 15 L 13.800781 15.789062 L 13.949219 18.789062 L 13.988281 19.5 L 11.058594 19.5 L 11.101562 20.289062 L 11.328125 24.414062 L 11.355469 24.925781 L 11.839844 25.085938 L 17.765625 27.039062 L 18 27.113281 L 18.234375 27.039062 L 24.160156 25.085938 L 24.644531 24.929688 L 24.671875 24.421875 L 25.199219 15.796875 L 25.574219 9.796875 Z M 15.570312 19.5 L 20.5 19.5 L 20.359375 21.578125 L 18 22.382812 L 15.652344 21.582031 L 15.597656 20.21875 Z M 15.570312 19.5 "/>
</g>
<mask id="mask1">
  <g filter="url(#alpha)">
<rect x="0" y="0" width="36" height="36" style="fill:rgb(0%,0%,0%);fill-opacity:0.07;stroke:none;"/>
  </g>
</mask>
<clipPath id="clip2">
  <rect x="0" y="0" width="36" height="36"/>
</clipPath>
<g id="surface10589" clip-path="url(#clip2)">
<path style=" stroke:none;fill-rule:nonzero;fill:rgb(0%,0%,0%);fill-opacity:1;" d="M 24.824219 9.75 L 24.449219 15.75 L 23.925781 24.375 L 18 26.324219 L 12.074219 24.375 L 11.851562 20.25 L 14.851562 20.25 L 14.925781 22.125 L 18 23.175781 L 21.074219 22.125 L 21.300781 18.75 L 14.699219 18.75 L 14.550781 15.75 L 21.449219 15.75 L 21.675781 12.75 L 11.324219 12.75 L 11.101562 9.75 L 24.824219 9.75 M 25.222656 9.375 L 10.695312 9.375 L 10.726562 9.777344 L 10.949219 12.777344 L 10.976562 13.125 L 21.269531 13.125 L 21.101562 15.375 L 14.15625 15.375 L 14.175781 15.769531 L 14.324219 18.769531 L 14.34375 19.125 L 20.898438 19.125 L 20.71875 21.851562 L 18 22.777344 L 15.289062 21.851562 L 15.226562 20.234375 L 15.210938 19.875 L 11.453125 19.875 L 11.476562 20.269531 L 11.699219 24.394531 L 11.714844 24.652344 L 11.957031 24.730469 L 17.882812 26.679688 L 18 26.71875 L 18.117188 26.679688 L 24.042969 24.730469 L 24.285156 24.652344 L 24.300781 24.398438 L 24.824219 15.773438 L 25.199219 9.773438 Z M 25.222656 9.375 "/>
</g>
</defs>
<g id="surface10576">
<path style=" stroke:none;fill-rule:nonzero;fill:url(#linear0);" d="M 5.394531 5.382812 L 7.363281 27.710938 C 7.445312 28.636719 8.089844 29.417969 8.988281 29.675781 L 16.96875 31.957031 C 17.644531 32.148438 18.355469 32.148438 19.03125 31.957031 L 27.011719 29.675781 C 27.90625 29.417969 28.554688 28.636719 28.636719 27.710938 L 30.605469 5.382812 C 30.683594 4.503906 29.992188 3.75 29.113281 3.75 L 6.886719 3.75 C 6.007812 3.75 5.316406 4.503906 5.394531 5.382812 Z M 5.394531 5.382812 "/>
<path style=" stroke:none;fill-rule:nonzero;fill:rgb(20.784314%,75.686276%,94.509804%);fill-opacity:1;" d="M 18 6 L 18 29.925781 L 25.40625 27.808594 C 26.003906 27.636719 26.433594 27.117188 26.488281 26.496094 L 28.203125 6.816406 C 28.242188 6.375 27.898438 6 27.457031 6 Z M 18 6 "/>
<path style=" stroke:none;fill-rule:nonzero;fill:rgb(100%,100%,100%);fill-opacity:1;" d="M 24.824219 9.75 L 18 9.75 L 18 12.75 L 21.675781 12.75 L 21.449219 15.75 L 18 15.75 L 18 18.75 L 21.300781 18.75 L 21.074219 22.125 L 18 23.175781 L 18 26.324219 L 23.925781 24.375 L 24.449219 15.75 Z M 24.824219 9.75 "/>
<path style=" stroke:none;fill-rule:nonzero;fill:rgb(83.92157%,87.843138%,91.37255%);fill-opacity:1;" d="M 18 9.75 L 18 12.75 L 11.324219 12.75 L 11.101562 9.75 Z M 14.550781 15.75 L 14.699219 18.75 L 18 18.75 L 18 15.75 Z M 14.851562 20.25 L 11.851562 20.25 L 12.074219 24.375 L 18 26.324219 L 18 23.175781 L 14.925781 22.125 Z M 14.851562 20.25 "/>
<use xlink:href="#surface10585" mask="url(#mask0)"/>
<use xlink:href="#surface10589" mask="url(#mask1)"/>
</g>
</svg>
