<?xml version="1.0" encoding="UTF-8"?>
<svg xmlns="http://www.w3.org/2000/svg" xmlns:xlink="http://www.w3.org/1999/xlink" width="72pt" height="72pt" viewBox="0 0 72 72" version="1.1">
<defs>
<linearGradient id="linear0" gradientUnits="userSpaceOnUse" x1="16.329901" y1="-2.7481" x2="32.292702" y2="41.1092" gradientTransform="matrix(1.5,0,0,1.5,0,0)">
<stop offset="0" style="stop-color:rgb(16.470589%,64.313728%,95.686275%);stop-opacity:1;"/>
<stop offset="1" style="stop-color:rgb(0%,47.843137%,85.09804%);stop-opacity:1;"/>
</linearGradient>
<filter id="alpha" filterUnits="objectBoundingBox" x="0%" y="0%" width="100%" height="100%">
  <feColorMatrix type="matrix" in="SourceGraphic" values="0 0 0 0 1 0 0 0 0 1 0 0 0 0 1 0 0 0 1 0"/>
</filter>
<mask id="mask0">
  <g filter="url(#alpha)">
<rect x="0" y="0" width="72" height="72" style="fill:rgb(0%,0%,0%);fill-opacity:0.05;stroke:none;"/>
  </g>
</mask>
<clipPath id="clip1">
  <rect x="0" y="0" width="72" height="72"/>
</clipPath>
<g id="surface10672" clip-path="url(#clip1)">
<path style=" stroke:none;fill-rule:nonzero;fill:rgb(0%,0%,0%);fill-opacity:1;" d="M 49.648438 19.5 L 48.898438 31.5 L 47.851562 48.75 L 36 52.648438 L 24.148438 48.75 L 23.699219 40.5 L 29.699219 40.5 L 29.851562 44.25 L 36 46.351562 L 42.148438 44.25 L 42.601562 37.5 L 29.398438 37.5 L 29.101562 31.5 L 42.898438 31.5 L 43.351562 25.5 L 22.648438 25.5 L 22.199219 19.5 L 49.648438 19.5 M 51.246094 18 L 20.582031 18 L 20.703125 19.613281 L 21.15625 25.613281 L 21.257812 27 L 41.734375 27 L 41.507812 30 L 27.523438 30 L 27.601562 31.574219 L 27.902344 37.574219 L 27.972656 39 L 22.117188 39 L 22.203125 40.582031 L 22.652344 48.832031 L 22.707031 49.855469 L 23.683594 50.175781 L 35.53125 54.074219 L 36 54.230469 L 36.46875 54.074219 L 48.320312 50.175781 L 49.285156 49.855469 L 49.347656 48.839844 L 50.398438 31.589844 L 51.148438 19.59375 Z M 31.140625 39 L 40.996094 39 L 40.71875 43.152344 L 36 44.765625 L 31.308594 43.164062 L 31.199219 40.441406 Z M 31.140625 39 "/>
</g>
<mask id="mask1">
  <g filter="url(#alpha)">
<rect x="0" y="0" width="72" height="72" style="fill:rgb(0%,0%,0%);fill-opacity:0.07;stroke:none;"/>
  </g>
</mask>
<clipPath id="clip2">
  <rect x="0" y="0" width="72" height="72"/>
</clipPath>
<g id="surface10676" clip-path="url(#clip2)">
<path style=" stroke:none;fill-rule:nonzero;fill:rgb(0%,0%,0%);fill-opacity:1;" d="M 49.648438 19.5 L 48.898438 31.5 L 47.851562 48.75 L 36 52.648438 L 24.148438 48.75 L 23.699219 40.5 L 29.699219 40.5 L 29.851562 44.25 L 36 46.351562 L 42.148438 44.25 L 42.601562 37.5 L 29.398438 37.5 L 29.101562 31.5 L 42.898438 31.5 L 43.351562 25.5 L 22.648438 25.5 L 22.199219 19.5 L 49.648438 19.5 M 50.449219 18.75 L 21.390625 18.75 L 21.453125 19.554688 L 21.902344 25.554688 L 21.953125 26.25 L 42.542969 26.25 L 42.203125 30.75 L 28.3125 30.75 L 28.351562 31.539062 L 28.648438 37.539062 L 28.6875 38.25 L 41.800781 38.25 L 41.4375 43.699219 L 36 45.558594 L 30.578125 43.707031 L 30.449219 40.46875 L 30.421875 39.75 L 22.90625 39.75 L 22.953125 40.539062 L 23.402344 48.789062 L 23.429688 49.300781 L 23.914062 49.460938 L 35.765625 53.363281 L 36 53.4375 L 36.234375 53.363281 L 48.085938 49.460938 L 48.566406 49.304688 L 48.597656 48.796875 L 49.648438 31.546875 L 50.398438 19.546875 Z M 50.449219 18.75 "/>
</g>
</defs>
<g id="surface10663">
<path style=" stroke:none;fill-rule:nonzero;fill:url(#linear0);" d="M 10.789062 10.765625 L 14.726562 55.417969 C 14.890625 57.273438 16.183594 58.839844 17.972656 59.351562 L 33.9375 63.910156 C 35.285156 64.296875 36.710938 64.296875 38.058594 63.910156 L 54.023438 59.351562 C 55.816406 58.839844 57.105469 57.277344 57.269531 55.417969 L 61.210938 10.765625 C 61.367188 9.007812 59.984375 7.5 58.222656 7.5 L 13.777344 7.5 C 12.015625 7.5 10.632812 9.007812 10.789062 10.765625 Z M 10.789062 10.765625 "/>
<path style=" stroke:none;fill-rule:nonzero;fill:rgb(20.784314%,75.686276%,94.509804%);fill-opacity:1;" d="M 36 12 L 36 59.851562 L 50.8125 55.617188 C 52.007812 55.273438 52.871094 54.230469 52.976562 52.992188 L 56.40625 13.628906 C 56.484375 12.753906 55.792969 12 54.914062 12 Z M 36 12 "/>
<path style=" stroke:none;fill-rule:nonzero;fill:rgb(100%,100%,100%);fill-opacity:1;" d="M 49.648438 19.5 L 36 19.5 L 36 25.5 L 43.351562 25.5 L 42.898438 31.5 L 36 31.5 L 36 37.5 L 42.601562 37.5 L 42.148438 44.25 L 36 46.351562 L 36 52.648438 L 47.851562 48.75 L 48.898438 31.5 Z M 49.648438 19.5 "/>
<path style=" stroke:none;fill-rule:nonzero;fill:rgb(83.92157%,87.843138%,91.37255%);fill-opacity:1;" d="M 36 19.5 L 36 25.5 L 22.648438 25.5 L 22.199219 19.5 Z M 29.101562 31.5 L 29.398438 37.5 L 36 37.5 L 36 31.5 Z M 29.699219 40.5 L 23.699219 40.5 L 24.148438 48.75 L 36 52.648438 L 36 46.351562 L 29.851562 44.25 Z M 29.699219 40.5 "/>
<use xlink:href="#surface10672" mask="url(#mask0)"/>
<use xlink:href="#surface10676" mask="url(#mask1)"/>
</g>
</svg>
