<?xml version="1.0" encoding="UTF-8"?>
<svg xmlns="http://www.w3.org/2000/svg" xmlns:xlink="http://www.w3.org/1999/xlink" width="72pt" height="72pt" viewBox="0 0 72 72" version="1.1">
<g id="surface41411">
<path style=" stroke:none;fill-rule:nonzero;fill:rgb(95.686275%,31.764707%,11.764706%);fill-opacity:1;" d="M 63.300781 33.148438 L 38.851562 8.699219 C 38.101562 7.949219 37.050781 7.5 36 7.5 C 34.949219 7.5 33.898438 7.949219 33.148438 8.699219 L 27.898438 13.949219 L 34.050781 20.101562 C 34.648438 19.800781 35.25 19.648438 36 19.648438 C 38.550781 19.648438 40.5 21.601562 40.5 24.148438 C 40.5 24.898438 40.351562 25.5 40.050781 26.101562 L 46.050781 32.101562 C 46.648438 31.800781 47.25 31.648438 48 31.648438 C 50.550781 31.648438 52.5 33.601562 52.5 36.148438 C 52.5 38.699219 50.550781 40.648438 48 40.648438 C 45.449219 40.648438 43.5 38.699219 43.5 36.148438 C 43.5 35.398438 43.648438 34.800781 43.949219 34.199219 L 37.949219 28.199219 C 37.800781 28.199219 37.648438 28.351562 37.5 28.351562 L 37.5 43.949219 C 39.300781 44.550781 40.5 46.199219 40.5 48.148438 C 40.5 50.699219 38.550781 52.648438 36 52.648438 C 33.449219 52.648438 31.5 50.699219 31.5 48.148438 C 31.5 46.199219 32.699219 44.550781 34.5 43.949219 L 34.5 28.199219 C 32.699219 27.601562 31.5 25.949219 31.5 24 C 31.5 23.25 31.648438 22.648438 31.949219 22.050781 L 25.800781 15.898438 L 8.699219 33.148438 C 7.949219 33.898438 7.5 34.949219 7.5 36 C 7.5 37.050781 7.949219 38.101562 8.699219 38.851562 L 33.148438 63.300781 C 33.898438 64.050781 34.949219 64.5 36 64.5 C 37.050781 64.5 38.101562 64.050781 38.851562 63.300781 L 63.300781 38.851562 C 64.050781 38.101562 64.5 37.050781 64.5 36 C 64.5 34.949219 64.050781 33.898438 63.300781 33.148438 Z M 63.300781 33.148438 "/>
</g>
</svg>
