<?xml version="1.0" encoding="UTF-8"?>
<svg xmlns="http://www.w3.org/2000/svg" xmlns:xlink="http://www.w3.org/1999/xlink" width="108pt" height="108pt" viewBox="0 0 108 108" version="1.1">
<g id="surface41427">
<path style=" stroke:none;fill-rule:nonzero;fill:rgb(95.686275%,31.764707%,11.764706%);fill-opacity:1;" d="M 94.949219 49.726562 L 58.273438 13.050781 C 57.148438 11.925781 55.574219 11.25 54 11.25 C 52.425781 11.25 50.851562 11.925781 49.726562 13.050781 L 41.851562 20.925781 L 51.074219 30.148438 C 51.976562 29.699219 52.875 29.476562 54 29.476562 C 57.824219 29.476562 60.75 32.398438 60.75 36.226562 C 60.75 37.351562 60.523438 38.25 60.074219 39.148438 L 69.074219 48.148438 C 69.976562 47.699219 70.875 47.476562 72 47.476562 C 75.824219 47.476562 78.75 50.398438 78.75 54.226562 C 78.75 58.050781 75.824219 60.976562 72 60.976562 C 68.175781 60.976562 65.25 58.050781 65.25 54.226562 C 65.25 53.101562 65.476562 52.199219 65.925781 51.300781 L 56.925781 42.300781 C 56.699219 42.300781 56.476562 42.523438 56.25 42.523438 L 56.25 65.925781 C 58.949219 66.824219 60.75 69.300781 60.75 72.226562 C 60.75 76.050781 57.824219 78.976562 54 78.976562 C 50.175781 78.976562 47.25 76.050781 47.25 72.226562 C 47.25 69.300781 49.050781 66.824219 51.75 65.925781 L 51.75 42.300781 C 49.050781 41.398438 47.25 38.925781 47.25 36 C 47.25 34.875 47.476562 33.976562 47.925781 33.074219 L 38.699219 23.851562 L 13.050781 49.726562 C 11.925781 50.851562 11.25 52.425781 11.25 54 C 11.25 55.574219 11.925781 57.148438 13.050781 58.273438 L 49.726562 94.949219 C 50.851562 96.074219 52.425781 96.75 54 96.75 C 55.574219 96.75 57.148438 96.074219 58.273438 94.949219 L 94.949219 58.273438 C 96.074219 57.148438 96.75 55.574219 96.75 54 C 96.75 52.425781 96.074219 50.851562 94.949219 49.726562 Z M 94.949219 49.726562 "/>
</g>
</svg>
