<?xml version="1.0" encoding="UTF-8"?>
<svg xmlns="http://www.w3.org/2000/svg" xmlns:xlink="http://www.w3.org/1999/xlink" width="36pt" height="36pt" viewBox="0 0 36 36" version="1.1">
<g id="surface41395">
<path style=" stroke:none;fill-rule:nonzero;fill:rgb(95.686275%,31.764707%,11.764706%);fill-opacity:1;" d="M 31.648438 16.574219 L 19.425781 4.351562 C 19.050781 3.976562 18.523438 3.75 18 3.75 C 17.476562 3.75 16.949219 3.976562 16.574219 4.351562 L 13.949219 6.976562 L 17.023438 10.050781 C 17.324219 9.898438 17.625 9.824219 18 9.824219 C 19.273438 9.824219 20.25 10.800781 20.25 12.074219 C 20.25 12.449219 20.175781 12.75 20.023438 13.050781 L 23.023438 16.050781 C 23.324219 15.898438 23.625 15.824219 24 15.824219 C 25.273438 15.824219 26.25 16.800781 26.25 18.074219 C 26.25 19.351562 25.273438 20.324219 24 20.324219 C 22.726562 20.324219 21.75 19.351562 21.75 18.074219 C 21.75 17.699219 21.824219 17.398438 21.976562 17.101562 L 18.976562 14.101562 C 18.898438 14.101562 18.824219 14.175781 18.75 14.175781 L 18.75 21.976562 C 19.648438 22.273438 20.25 23.101562 20.25 24.074219 C 20.25 25.351562 19.273438 26.324219 18 26.324219 C 16.726562 26.324219 15.75 25.351562 15.75 24.074219 C 15.75 23.101562 16.351562 22.273438 17.25 21.976562 L 17.25 14.101562 C 16.351562 13.800781 15.75 12.976562 15.75 12 C 15.75 11.625 15.824219 11.324219 15.976562 11.023438 L 12.898438 7.949219 L 4.351562 16.574219 C 3.976562 16.949219 3.75 17.476562 3.75 18 C 3.75 18.523438 3.976562 19.050781 4.351562 19.425781 L 16.574219 31.648438 C 16.949219 32.023438 17.476562 32.25 18 32.25 C 18.523438 32.25 19.050781 32.023438 19.425781 31.648438 L 31.648438 19.425781 C 32.023438 19.050781 32.25 18.523438 32.25 18 C 32.25 17.476562 32.023438 16.949219 31.648438 16.574219 Z M 31.648438 16.574219 "/>
</g>
</svg>
