<?xml version="1.0" encoding="UTF-8"?>
<svg xmlns="http://www.w3.org/2000/svg" xmlns:xlink="http://www.w3.org/1999/xlink" width="36pt" height="36pt" viewBox="0 0 36 36" version="1.1">
<defs>
<linearGradient id="linear0" gradientUnits="userSpaceOnUse" x1="9.8001" y1="25.2362" x2="11.081" y2="36.899101" gradientTransform="matrix(0.75,0,0,0.75,0,0)">
<stop offset="0" style="stop-color:rgb(1.960784%,56.078434%,57.254905%);stop-opacity:1;"/>
<stop offset="0.5" style="stop-color:rgb(1.176471%,51.764709%,53.725493%);stop-opacity:1;"/>
<stop offset="1" style="stop-color:rgb(0.784314%,42.745098%,44.313726%);stop-opacity:1;"/>
</linearGradient>
<linearGradient id="linear1" gradientUnits="userSpaceOnUse" x1="34.224201" y1="25.6436" x2="35.100601" y2="35.216599" gradientTransform="matrix(0.75,0,0,0.75,0,0)">
<stop offset="0" style="stop-color:rgb(100%,61.176473%,5.882353%);stop-opacity:1;"/>
<stop offset="0.8128" style="stop-color:rgb(83.92157%,49.411765%,0%);stop-opacity:1;"/>
</linearGradient>
<linearGradient id="linear2" gradientUnits="userSpaceOnUse" x1="35.028999" y1="11.7158" x2="40.3549" y2="26.7495" gradientTransform="matrix(0.75,0,0,0.75,0,0)">
<stop offset="0" style="stop-color:rgb(1.960784%,56.078434%,57.254905%);stop-opacity:1;"/>
<stop offset="0.5" style="stop-color:rgb(1.176471%,51.764709%,53.725493%);stop-opacity:1;"/>
<stop offset="1" style="stop-color:rgb(0.784314%,42.745098%,44.313726%);stop-opacity:1;"/>
</linearGradient>
</defs>
<g id="surface27565">
<path style=" stroke:none;fill-rule:nonzero;fill:url(#linear0);" d="M 0 26.28125 L 1.441406 26.28125 L 1.441406 20.96875 L 3.441406 25.507812 C 3.6875 26.074219 4.027344 26.277344 4.6875 26.277344 C 5.351562 26.277344 5.675781 26.074219 5.921875 25.507812 L 7.921875 21.082031 L 7.921875 26.28125 L 9.363281 26.28125 L 9.363281 20.835938 C 9.363281 20.316406 9.152344 20.0625 8.726562 19.929688 C 7.699219 19.609375 7.011719 19.886719 6.699219 20.585938 L 4.648438 25.203125 L 2.660156 20.585938 C 2.363281 19.886719 1.664062 19.609375 0.636719 19.929688 C 0.207031 20.0625 0 20.3125 0 20.835938 Z M 10.082031 21.960938 L 11.519531 21.960938 L 11.519531 25.003906 C 11.507812 25.152344 11.570312 25.550781 12.261719 25.5625 C 12.617188 25.566406 14.378906 25.5625 14.402344 25.5625 L 14.402344 21.960938 L 15.839844 21.960938 C 15.847656 21.960938 15.839844 26.4375 15.839844 26.457031 C 15.847656 27.558594 14.46875 27.703125 13.835938 27.722656 L 10.082031 27.722656 L 10.082031 27 C 10.089844 27 13.671875 27 13.683594 27 C 14.5 26.914062 14.402344 26.464844 14.402344 26.328125 L 14.402344 26.28125 L 12.140625 26.28125 C 10.890625 26.269531 10.089844 25.71875 10.082031 25.089844 C 10.082031 25.03125 10.109375 21.988281 10.082031 21.960938 Z M 10.082031 21.960938 "/>
<path style=" stroke:none;fill-rule:nonzero;fill:url(#linear1);" d="M 16.5625 26.28125 L 20.164062 26.28125 C 20.636719 26.28125 21.097656 26.183594 21.460938 26.011719 C 22.070312 25.730469 22.320312 25.355469 22.320312 24.859375 L 22.320312 23.832031 C 22.320312 22.726562 20.949219 22.679688 20.160156 22.679688 L 18.71875 22.679688 C 18.152344 22.679688 18.066406 22.339844 18 21.960938 L 18 21.242188 C 18.066406 20.953125 18.195312 20.566406 18.691406 20.519531 C 19.273438 20.519531 22.320312 20.519531 22.320312 20.519531 L 22.320312 19.800781 L 18.894531 19.800781 C 18.328125 19.800781 16.558594 19.867188 16.558594 21.242188 L 16.558594 22.132812 C 16.558594 22.761719 17.113281 23.273438 18.3125 23.398438 C 18.449219 23.410156 18.585938 23.417969 18.71875 23.417969 C 18.71875 23.417969 20.117188 23.390625 20.160156 23.398438 C 20.96875 23.398438 20.878906 24.03125 20.878906 24.121094 L 20.878906 24.839844 C 20.878906 24.9375 20.855469 25.558594 20.148438 25.558594 C 20.097656 25.558594 16.558594 25.558594 16.558594 25.558594 L 16.558594 26.28125 Z M 30.238281 24.808594 C 30.238281 25.679688 30.730469 26.167969 32.035156 26.265625 C 32.15625 26.273438 32.277344 26.28125 32.398438 26.28125 L 36 26.28125 L 36 25.558594 L 32.671875 25.558594 C 31.929688 25.558594 31.679688 25.246094 31.679688 24.800781 L 31.679688 19.800781 L 30.238281 19.800781 Z M 23.027344 24.839844 L 23.027344 21.242188 C 23.027344 20.476562 23.402344 19.949219 24.464844 19.800781 L 27.949219 19.800781 C 29.011719 19.949219 29.507812 20.476562 29.507812 21.242188 L 29.507812 24.828125 C 29.507812 25.449219 29.347656 25.78125 28.820312 25.996094 L 29.9375 27 L 28.316406 27 L 27.515625 26.28125 L 26.570312 26.28125 L 24.96875 26.289062 C 24.738281 26.289062 24.492188 26.257812 24.226562 26.183594 C 23.417969 25.964844 23.027344 25.539062 23.027344 24.839844 Z M 24.46875 24.839844 C 24.542969 25.191406 24.824219 25.5625 25.324219 25.5625 L 26.722656 25.5625 L 25.921875 24.839844 L 27.550781 24.839844 L 27.941406 25.203125 C 27.941406 25.203125 28.078125 25.089844 28.078125 24.839844 C 28.078125 24.59375 28.066406 21.242188 28.066406 21.242188 C 27.996094 20.914062 27.664062 20.519531 27.175781 20.519531 L 25.324219 20.519531 C 24.761719 20.519531 24.46875 20.933594 24.46875 21.3125 Z M 24.46875 24.839844 "/>
<path style=" stroke:none;fill-rule:nonzero;fill:url(#linear2);" d="M 34.648438 19.042969 C 33.875 19.019531 33.285156 19.09375 32.78125 19.304688 C 32.636719 19.367188 32.410156 19.367188 32.386719 19.546875 C 32.464844 19.628906 32.476562 19.753906 32.539062 19.855469 C 32.660156 20.050781 32.863281 20.3125 33.042969 20.449219 C 33.242188 20.597656 33.449219 20.757812 33.660156 20.886719 C 34.039062 21.117188 34.460938 21.25 34.824219 21.480469 C 35.039062 21.617188 35.253906 21.789062 35.460938 21.941406 C 35.566406 22.019531 35.632812 22.136719 35.769531 22.183594 C 35.769531 22.175781 35.769531 22.171875 35.769531 22.164062 C 35.699219 22.074219 35.679688 21.949219 35.617188 21.855469 C 35.519531 21.757812 35.425781 21.664062 35.332031 21.570312 C 35.050781 21.199219 34.695312 20.871094 34.320312 20.601562 C 34.019531 20.386719 33.347656 20.09375 33.21875 19.746094 C 33.210938 19.738281 33.207031 19.730469 33.195312 19.722656 C 33.410156 19.699219 33.660156 19.621094 33.855469 19.570312 C 34.1875 19.480469 34.480469 19.503906 34.824219 19.414062 C 34.976562 19.371094 35.128906 19.328125 35.285156 19.285156 C 35.285156 19.253906 35.285156 19.226562 35.285156 19.195312 C 35.113281 19.019531 34.988281 18.785156 34.800781 18.625 C 34.308594 18.203125 33.769531 17.785156 33.21875 17.4375 C 32.910156 17.242188 32.53125 17.117188 32.207031 16.953125 C 32.097656 16.898438 31.90625 16.867188 31.832031 16.777344 C 31.664062 16.558594 31.570312 16.285156 31.4375 16.03125 C 31.164062 15.5 30.890625 14.917969 30.648438 14.359375 C 30.480469 13.980469 30.371094 13.601562 30.164062 13.261719 C 29.164062 11.621094 28.089844 10.628906 26.425781 9.65625 C 26.074219 9.449219 25.644531 9.367188 25.195312 9.257812 C 24.953125 9.246094 24.710938 9.230469 24.46875 9.214844 C 24.320312 9.152344 24.167969 8.972656 24.027344 8.886719 C 23.476562 8.535156 22.0625 7.777344 21.65625 8.773438 C 21.398438 9.402344 22.039062 10.015625 22.269531 10.335938 C 22.433594 10.558594 22.640625 10.808594 22.753906 11.0625 C 22.832031 11.226562 22.84375 11.390625 22.910156 11.566406 C 23.070312 11.996094 23.320312 12.488281 23.527344 12.886719 C 23.632812 13.089844 23.746094 13.300781 23.878906 13.480469 C 23.960938 13.589844 24.101562 13.640625 24.121094 13.808594 C 23.988281 14 23.980469 14.292969 23.902344 14.535156 C 23.558594 15.621094 23.6875 16.964844 24.1875 17.765625 C 24.339844 18.011719 24.703125 18.539062 25.199219 18.339844 C 25.632812 18.160156 25.535156 17.613281 25.660156 17.128906 C 25.6875 17.019531 25.671875 16.941406 25.726562 16.867188 C 25.726562 16.875 25.726562 16.878906 25.726562 16.886719 C 25.859375 17.152344 25.988281 17.417969 26.121094 17.679688 C 26.414062 18.152344 26.933594 18.644531 27.375 18.976562 C 27.601562 19.148438 27.78125 19.449219 28.078125 19.546875 C 28.078125 19.542969 28.078125 19.535156 28.078125 19.527344 C 28.070312 19.527344 28.0625 19.527344 28.054688 19.527344 C 28 19.4375 27.910156 19.398438 27.835938 19.328125 C 27.664062 19.160156 27.472656 18.949219 27.332031 18.757812 C 26.929688 18.214844 26.578125 17.617188 26.253906 16.996094 C 26.101562 16.703125 25.964844 16.375 25.835938 16.074219 C 25.785156 15.957031 25.785156 15.78125 25.683594 15.722656 C 25.539062 15.945312 25.332031 16.121094 25.222656 16.382812 C 25.046875 16.796875 25.023438 17.308594 24.957031 17.832031 C 24.917969 17.847656 24.9375 17.835938 24.914062 17.855469 C 24.609375 17.78125 24.5 17.464844 24.386719 17.195312 C 24.097656 16.511719 24.042969 15.410156 24.296875 14.625 C 24.363281 14.417969 24.660156 13.777344 24.539062 13.589844 C 24.484375 13.402344 24.292969 13.292969 24.1875 13.148438 C 24.058594 12.972656 23.929688 12.738281 23.835938 12.535156 C 23.601562 12 23.378906 11.378906 23.128906 10.839844 C 23.011719 10.582031 22.8125 10.324219 22.644531 10.09375 C 22.464844 9.839844 22.257812 9.652344 22.117188 9.347656 C 22.066406 9.238281 22 9.0625 22.074219 8.953125 C 22.097656 8.875 22.132812 8.84375 22.207031 8.820312 C 22.332031 8.71875 22.6875 8.851562 22.820312 8.90625 C 23.175781 9.054688 23.46875 9.191406 23.765625 9.390625 C 23.910156 9.484375 24.054688 9.667969 24.226562 9.722656 C 24.292969 9.722656 24.359375 9.722656 24.425781 9.722656 C 24.734375 9.792969 25.082031 9.742188 25.371094 9.832031 C 25.882812 9.984375 26.339844 10.226562 26.753906 10.492188 C 28.023438 11.289062 29.058594 12.429688 29.765625 13.789062 C 29.882812 14.007812 29.929688 14.214844 30.03125 14.445312 C 30.234375 14.914062 30.488281 15.398438 30.691406 15.855469 C 30.890625 16.3125 31.085938 16.773438 31.371094 17.152344 C 31.523438 17.351562 32.097656 17.457031 32.359375 17.570312 C 32.542969 17.648438 32.847656 17.726562 33.019531 17.832031 C 33.351562 18.035156 33.675781 18.273438 33.988281 18.492188 C 34.144531 18.601562 34.625 18.84375 34.648438 19.042969 Z M 34.648438 19.042969 "/>
<path style=" stroke:none;fill-rule:nonzero;fill:rgb(0%,47.450981%,41.960785%);fill-opacity:1;" d="M 24.824219 10.667969 C 24.664062 10.664062 24.546875 10.683594 24.425781 10.710938 C 24.425781 10.71875 24.425781 10.726562 24.425781 10.734375 C 24.433594 10.734375 24.441406 10.734375 24.449219 10.734375 C 24.527344 10.890625 24.664062 10.996094 24.757812 11.128906 C 24.832031 11.285156 24.902344 11.4375 24.976562 11.589844 C 24.984375 11.582031 24.992188 11.578125 25 11.570312 C 25.132812 11.472656 25.199219 11.320312 25.195312 11.085938 C 25.140625 11.027344 25.132812 10.957031 25.085938 10.886719 C 25.023438 10.796875 24.902344 10.742188 24.824219 10.667969 Z M 24.824219 10.667969 "/>
</g>
</svg>
