<?xml version="1.0" encoding="UTF-8"?>
<svg xmlns="http://www.w3.org/2000/svg" xmlns:xlink="http://www.w3.org/1999/xlink" width="108pt" height="108pt" viewBox="0 0 108 108" version="1.1">
<defs>
<linearGradient id="linear0" gradientUnits="userSpaceOnUse" x1="9.8001" y1="25.2362" x2="11.081" y2="36.899101" gradientTransform="matrix(2.25,0,0,2.25,0,0)">
<stop offset="0" style="stop-color:rgb(1.960784%,56.078434%,57.254905%);stop-opacity:1;"/>
<stop offset="0.5" style="stop-color:rgb(1.176471%,51.764709%,53.725493%);stop-opacity:1;"/>
<stop offset="1" style="stop-color:rgb(0.784314%,42.745098%,44.313726%);stop-opacity:1;"/>
</linearGradient>
<linearGradient id="linear1" gradientUnits="userSpaceOnUse" x1="34.224201" y1="25.6436" x2="35.100601" y2="35.216599" gradientTransform="matrix(2.25,0,0,2.25,0,0)">
<stop offset="0" style="stop-color:rgb(100%,61.176473%,5.882353%);stop-opacity:1;"/>
<stop offset="0.8128" style="stop-color:rgb(83.92157%,49.411765%,0%);stop-opacity:1;"/>
</linearGradient>
<linearGradient id="linear2" gradientUnits="userSpaceOnUse" x1="35.028999" y1="11.7158" x2="40.3549" y2="26.7495" gradientTransform="matrix(2.25,0,0,2.25,0,0)">
<stop offset="0" style="stop-color:rgb(1.960784%,56.078434%,57.254905%);stop-opacity:1;"/>
<stop offset="0.5" style="stop-color:rgb(1.176471%,51.764709%,53.725493%);stop-opacity:1;"/>
<stop offset="1" style="stop-color:rgb(0.784314%,42.745098%,44.313726%);stop-opacity:1;"/>
</linearGradient>
</defs>
<g id="surface27621">
<path style=" stroke:none;fill-rule:nonzero;fill:url(#linear0);" d="M 0.00390625 78.84375 L 4.324219 78.84375 L 4.324219 62.902344 L 10.324219 76.527344 C 11.066406 78.226562 12.078125 78.828125 14.066406 78.828125 C 16.050781 78.828125 17.023438 78.226562 17.765625 76.527344 L 23.765625 63.25 L 23.765625 78.84375 L 28.085938 78.84375 L 28.085938 62.511719 C 28.085938 60.945312 27.460938 60.183594 26.175781 59.792969 C 23.097656 58.824219 21.03125 59.660156 20.097656 61.753906 L 13.945312 75.613281 L 7.984375 61.753906 C 7.089844 59.660156 4.988281 58.824219 1.910156 59.792969 C 0.625 60.183594 0 60.941406 0 62.507812 L 0 78.839844 L 0.00390625 78.839844 Z M 30.242188 65.882812 L 34.5625 65.882812 L 34.5625 75.007812 C 34.527344 75.457031 34.707031 76.652344 36.789062 76.683594 C 37.851562 76.699219 43.136719 76.683594 43.203125 76.683594 L 43.203125 65.882812 L 47.523438 65.882812 C 47.539062 65.882812 47.523438 79.308594 47.523438 79.367188 C 47.542969 82.679688 43.410156 83.105469 41.507812 83.164062 L 30.246094 83.164062 L 30.246094 81.003906 C 30.265625 81.003906 41.015625 81.003906 41.046875 81.003906 C 43.496094 80.742188 43.203125 79.394531 43.203125 78.984375 L 43.203125 78.84375 L 36.425781 78.84375 C 32.671875 78.808594 30.273438 77.152344 30.246094 75.265625 C 30.242188 75.089844 30.328125 65.964844 30.242188 65.882812 Z M 30.242188 65.882812 "/>
<path style=" stroke:none;fill-rule:nonzero;fill:url(#linear1);" d="M 49.683594 78.84375 L 60.496094 78.84375 C 61.914062 78.84375 63.292969 78.546875 64.386719 78.03125 C 66.207031 77.195312 66.960938 76.0625 66.960938 74.578125 L 66.960938 71.5 C 66.960938 68.175781 62.84375 68.042969 60.480469 68.042969 L 56.160156 68.042969 C 54.460938 68.042969 54.203125 67.015625 54 65.882812 L 54 63.722656 C 54.203125 62.859375 54.582031 61.695312 56.078125 61.5625 C 57.816406 61.5625 66.957031 61.5625 66.957031 61.5625 L 66.957031 59.402344 L 56.683594 59.402344 C 54.984375 59.402344 49.679688 59.605469 49.679688 63.722656 L 49.679688 66.394531 C 49.679688 68.28125 51.339844 69.820312 54.941406 70.199219 C 55.347656 70.226562 55.753906 70.253906 56.15625 70.253906 C 56.15625 70.253906 60.355469 70.171875 60.476562 70.199219 C 62.90625 70.199219 62.636719 72.089844 62.636719 72.359375 L 62.636719 74.519531 C 62.636719 74.816406 62.566406 76.679688 60.449219 76.679688 C 60.289062 76.679688 49.675781 76.679688 49.675781 76.679688 L 49.675781 78.84375 Z M 90.71875 74.429688 C 90.71875 77.039062 92.195312 78.5 96.101562 78.792969 C 96.464844 78.816406 96.832031 78.839844 97.199219 78.839844 L 108 78.839844 L 108 76.679688 L 98.019531 76.679688 C 95.792969 76.679688 95.039062 75.742188 95.039062 74.40625 L 95.039062 59.398438 L 90.71875 59.398438 Z M 69.085938 74.523438 L 69.085938 63.722656 C 69.085938 61.425781 70.210938 59.84375 73.394531 59.402344 L 83.84375 59.402344 C 87.03125 59.84375 88.523438 61.425781 88.523438 63.722656 L 88.523438 74.480469 C 88.523438 76.34375 88.039062 77.339844 86.464844 77.988281 L 89.8125 81 L 84.949219 81 L 82.542969 78.839844 L 79.714844 78.839844 L 74.910156 78.867188 C 74.214844 78.867188 73.480469 78.769531 72.675781 78.550781 C 70.257812 77.890625 69.085938 76.621094 69.085938 74.523438 Z M 73.402344 74.523438 C 73.625 75.574219 74.46875 76.683594 75.96875 76.683594 L 80.164062 76.683594 L 77.761719 74.523438 L 82.652344 74.523438 L 83.820312 75.605469 C 83.820312 75.605469 84.238281 75.265625 84.238281 74.523438 C 84.238281 73.78125 84.203125 63.722656 84.203125 63.722656 C 83.984375 62.746094 82.992188 61.5625 81.53125 61.5625 L 75.972656 61.5625 C 74.285156 61.5625 73.40625 62.796875 73.40625 63.941406 Z M 73.402344 74.523438 "/>
<path style=" stroke:none;fill-rule:nonzero;fill:url(#linear2);" d="M 103.949219 57.125 C 101.628906 57.0625 99.855469 57.277344 98.34375 57.914062 C 97.914062 58.097656 97.226562 58.101562 97.15625 58.640625 C 97.390625 58.890625 97.425781 59.261719 97.617188 59.5625 C 97.976562 60.148438 98.589844 60.933594 99.132812 61.34375 C 99.730469 61.792969 100.34375 62.277344 100.980469 62.664062 C 102.113281 63.355469 103.378906 63.75 104.472656 64.445312 C 105.117188 64.851562 105.757812 65.371094 106.386719 65.828125 C 106.695312 66.058594 106.902344 66.410156 107.308594 66.554688 C 107.308594 66.53125 107.308594 66.511719 107.308594 66.488281 C 107.097656 66.21875 107.042969 65.847656 106.847656 65.566406 C 106.5625 65.277344 106.277344 64.992188 105.992188 64.707031 C 105.152344 63.597656 104.085938 62.617188 102.957031 61.808594 C 102.054688 61.160156 100.039062 60.285156 99.660156 59.234375 C 99.636719 59.214844 99.617188 59.191406 99.589844 59.167969 C 100.230469 59.097656 100.980469 58.863281 101.570312 58.707031 C 102.5625 58.441406 103.445312 58.511719 104.46875 58.246094 C 104.929688 58.113281 105.390625 57.984375 105.851562 57.851562 C 105.851562 57.761719 105.851562 57.675781 105.851562 57.585938 C 105.335938 57.054688 104.964844 56.351562 104.402344 55.871094 C 102.925781 54.613281 101.3125 53.359375 99.65625 52.308594 C 98.734375 51.730469 97.597656 51.351562 96.621094 50.859375 C 96.292969 50.691406 95.71875 50.605469 95.5 50.332031 C 94.988281 49.679688 94.710938 48.851562 94.316406 48.089844 C 93.488281 46.5 92.671875 44.757812 91.941406 43.082031 C 91.441406 41.9375 91.113281 40.808594 90.492188 39.78125 C 87.496094 34.859375 84.273438 31.886719 79.28125 28.964844 C 78.21875 28.34375 76.9375 28.101562 75.585938 27.777344 C 74.859375 27.734375 74.136719 27.691406 73.410156 27.644531 C 72.964844 27.460938 72.507812 26.917969 72.085938 26.65625 C 70.433594 25.609375 66.191406 23.335938 64.964844 26.324219 C 64.191406 28.210938 66.121094 30.050781 66.8125 31.007812 C 67.296875 31.679688 67.917969 32.429688 68.265625 33.183594 C 68.492188 33.679688 68.53125 34.175781 68.726562 34.703125 C 69.207031 35.992188 69.964844 37.464844 70.585938 38.660156 C 70.898438 39.265625 71.242188 39.898438 71.640625 40.4375 C 71.882812 40.769531 72.300781 40.917969 72.367188 41.429688 C 71.960938 42 71.9375 42.882812 71.707031 43.605469 C 70.675781 46.859375 71.066406 50.898438 72.566406 53.300781 C 73.023438 54.039062 74.109375 55.621094 75.597656 55.015625 C 76.902344 54.484375 76.609375 52.839844 76.980469 51.386719 C 77.066406 51.058594 77.011719 50.820312 77.179688 50.597656 C 77.179688 50.621094 77.179688 50.640625 77.179688 50.664062 C 77.574219 51.457031 77.96875 52.25 78.367188 53.039062 C 79.246094 54.453125 80.804688 55.933594 82.125 56.933594 C 82.808594 57.449219 83.347656 58.34375 84.234375 58.644531 C 84.234375 58.625 84.234375 58.601562 84.234375 58.578125 C 84.214844 58.578125 84.191406 58.578125 84.167969 58.578125 C 83.996094 58.3125 83.726562 58.199219 83.507812 57.984375 C 82.992188 57.476562 82.417969 56.851562 81.992188 56.269531 C 80.789062 54.640625 79.730469 52.851562 78.761719 50.992188 C 78.300781 50.105469 77.898438 49.128906 77.507812 48.222656 C 77.355469 47.875 77.359375 47.347656 77.046875 47.167969 C 76.621094 47.832031 75.992188 48.367188 75.664062 49.148438 C 75.136719 50.394531 75.066406 51.921875 74.875 53.5 C 74.757812 53.539062 74.808594 53.511719 74.742188 53.5625 C 73.824219 53.339844 73.5 52.398438 73.15625 51.585938 C 72.292969 49.535156 72.132812 46.230469 72.894531 43.871094 C 73.089844 43.257812 73.976562 41.335938 73.621094 40.769531 C 73.449219 40.207031 72.882812 39.878906 72.566406 39.449219 C 72.171875 38.917969 71.785156 38.214844 71.511719 37.601562 C 70.804688 36.003906 70.132812 34.140625 69.390625 32.523438 C 69.035156 31.75 68.433594 30.96875 67.9375 30.28125 C 67.390625 29.523438 66.777344 28.960938 66.355469 28.042969 C 66.203125 27.714844 66 27.191406 66.222656 26.855469 C 66.292969 26.625 66.394531 26.53125 66.617188 26.457031 C 67 26.160156 68.066406 26.554688 68.464844 26.722656 C 69.523438 27.160156 70.40625 27.578125 71.300781 28.171875 C 71.730469 28.457031 72.164062 29.007812 72.683594 29.164062 C 72.882812 29.164062 73.078125 29.164062 73.277344 29.164062 C 74.207031 29.375 75.246094 29.230469 76.113281 29.492188 C 77.648438 29.957031 79.019531 30.683594 80.265625 31.472656 C 84.070312 33.871094 87.175781 37.285156 89.300781 41.363281 C 89.644531 42.019531 89.792969 42.648438 90.09375 43.339844 C 90.699219 44.746094 91.46875 46.191406 92.070312 47.5625 C 92.671875 48.933594 93.261719 50.316406 94.117188 51.457031 C 94.566406 52.054688 96.296875 52.375 97.082031 52.707031 C 97.632812 52.941406 98.539062 53.183594 99.0625 53.5 C 100.058594 54.101562 101.027344 54.820312 101.960938 55.476562 C 102.4375 55.808594 103.875 56.527344 103.949219 57.125 Z M 103.949219 57.125 "/>
<path style=" stroke:none;fill-rule:nonzero;fill:rgb(0%,47.450981%,41.960785%);fill-opacity:1;" d="M 74.46875 32 C 73.988281 31.992188 73.644531 32.054688 73.28125 32.132812 C 73.28125 32.15625 73.28125 32.175781 73.28125 32.203125 C 73.304688 32.203125 73.324219 32.203125 73.351562 32.203125 C 73.582031 32.675781 73.988281 32.984375 74.273438 33.390625 C 74.492188 33.851562 74.710938 34.3125 74.933594 34.773438 C 74.953125 34.75 74.972656 34.730469 74.996094 34.707031 C 75.402344 34.421875 75.59375 33.960938 75.589844 33.257812 C 75.425781 33.085938 75.402344 32.867188 75.261719 32.664062 C 75.070312 32.386719 74.707031 32.230469 74.46875 32 Z M 74.46875 32 "/>
</g>
</svg>
