<?xml version="1.0" encoding="UTF-8"?>
<svg xmlns="http://www.w3.org/2000/svg" xmlns:xlink="http://www.w3.org/1999/xlink" width="72pt" height="72pt" viewBox="0 0 72 72" version="1.1">
<defs>
<linearGradient id="linear0" gradientUnits="userSpaceOnUse" x1="9.8001" y1="25.2362" x2="11.081" y2="36.899101" gradientTransform="matrix(1.5,0,0,1.5,0,0)">
<stop offset="0" style="stop-color:rgb(1.960784%,56.078434%,57.254905%);stop-opacity:1;"/>
<stop offset="0.5" style="stop-color:rgb(1.176471%,51.764709%,53.725493%);stop-opacity:1;"/>
<stop offset="1" style="stop-color:rgb(0.784314%,42.745098%,44.313726%);stop-opacity:1;"/>
</linearGradient>
<linearGradient id="linear1" gradientUnits="userSpaceOnUse" x1="34.224201" y1="25.6436" x2="35.100601" y2="35.216599" gradientTransform="matrix(1.5,0,0,1.5,0,0)">
<stop offset="0" style="stop-color:rgb(100%,61.176473%,5.882353%);stop-opacity:1;"/>
<stop offset="0.8128" style="stop-color:rgb(83.92157%,49.411765%,0%);stop-opacity:1;"/>
</linearGradient>
<linearGradient id="linear2" gradientUnits="userSpaceOnUse" x1="35.028999" y1="11.7158" x2="40.3549" y2="26.7495" gradientTransform="matrix(1.5,0,0,1.5,0,0)">
<stop offset="0" style="stop-color:rgb(1.960784%,56.078434%,57.254905%);stop-opacity:1;"/>
<stop offset="0.5" style="stop-color:rgb(1.176471%,51.764709%,53.725493%);stop-opacity:1;"/>
<stop offset="1" style="stop-color:rgb(0.784314%,42.745098%,44.313726%);stop-opacity:1;"/>
</linearGradient>
</defs>
<g id="surface27593">
<path style=" stroke:none;fill-rule:nonzero;fill:url(#linear0);" d="M 0.00390625 52.5625 L 2.882812 52.5625 L 2.882812 41.933594 L 6.882812 51.019531 C 7.378906 52.152344 8.050781 52.550781 9.375 52.550781 C 10.699219 52.550781 11.347656 52.152344 11.84375 51.019531 L 15.84375 42.167969 L 15.84375 52.5625 L 18.722656 52.5625 L 18.722656 41.675781 C 18.722656 40.628906 18.308594 40.121094 17.449219 39.859375 C 15.398438 39.214844 14.023438 39.773438 13.398438 41.167969 L 9.296875 50.410156 L 5.324219 41.167969 C 4.726562 39.773438 3.324219 39.214844 1.273438 39.859375 C 0.414062 40.121094 0 40.628906 0 41.671875 L 0 52.558594 L 0.00390625 52.558594 Z M 20.160156 43.921875 L 23.042969 43.921875 L 23.042969 50.003906 C 23.019531 50.304688 23.136719 51.101562 24.527344 51.121094 C 25.234375 51.132812 28.757812 51.121094 28.800781 51.121094 L 28.800781 43.921875 L 31.679688 43.921875 C 31.695312 43.921875 31.679688 52.875 31.679688 52.910156 C 31.695312 55.117188 28.941406 55.402344 27.671875 55.441406 L 20.164062 55.441406 L 20.164062 54 C 20.179688 54 27.34375 54.003906 27.363281 54 C 28.996094 53.828125 28.804688 52.929688 28.804688 52.65625 L 28.804688 52.5625 L 24.285156 52.5625 C 21.78125 52.539062 20.183594 51.433594 20.164062 50.175781 C 20.160156 50.058594 20.21875 43.976562 20.160156 43.921875 Z M 20.160156 43.921875 "/>
<path style=" stroke:none;fill-rule:nonzero;fill:url(#linear1);" d="M 33.121094 52.5625 L 40.332031 52.5625 C 41.277344 52.5625 42.195312 52.363281 42.925781 52.023438 C 44.140625 51.464844 44.640625 50.710938 44.640625 49.71875 L 44.640625 47.664062 C 44.640625 45.453125 41.894531 45.363281 40.320312 45.363281 L 37.441406 45.363281 C 36.308594 45.363281 36.136719 44.675781 36 43.921875 L 36 42.480469 C 36.136719 41.90625 36.386719 41.132812 37.382812 41.042969 C 38.542969 41.042969 44.636719 41.042969 44.636719 41.042969 L 44.636719 39.601562 L 37.789062 39.601562 C 36.65625 39.601562 33.117188 39.738281 33.117188 42.480469 L 33.117188 44.261719 C 33.117188 45.523438 34.226562 46.546875 36.628906 46.800781 C 36.898438 46.816406 37.167969 46.835938 37.4375 46.835938 C 37.4375 46.835938 40.234375 46.78125 40.316406 46.800781 C 41.9375 46.800781 41.757812 48.058594 41.757812 48.238281 L 41.757812 49.679688 C 41.757812 49.878906 41.710938 51.121094 40.300781 51.121094 C 40.191406 51.121094 33.117188 51.121094 33.117188 51.121094 L 33.117188 52.5625 Z M 60.480469 49.621094 C 60.480469 51.359375 61.460938 52.332031 64.066406 52.527344 C 64.3125 52.546875 64.554688 52.558594 64.800781 52.558594 L 72 52.558594 L 72 51.121094 L 65.347656 51.121094 C 63.859375 51.121094 63.359375 50.496094 63.359375 49.601562 L 63.359375 39.601562 L 60.480469 39.601562 Z M 46.054688 49.679688 L 46.054688 42.480469 C 46.054688 40.953125 46.804688 39.894531 48.929688 39.601562 L 55.894531 39.601562 C 58.019531 39.894531 59.015625 40.949219 59.015625 42.480469 L 59.015625 49.65625 C 59.015625 50.894531 58.695312 51.5625 57.640625 51.992188 L 59.875 54 L 56.632812 54 L 55.027344 52.558594 L 53.144531 52.558594 L 49.941406 52.578125 C 49.476562 52.578125 48.988281 52.511719 48.449219 52.367188 C 46.839844 51.925781 46.054688 51.082031 46.054688 49.679688 Z M 48.9375 49.679688 C 49.082031 50.382812 49.644531 51.121094 50.644531 51.121094 L 53.441406 51.121094 L 51.839844 49.679688 L 55.101562 49.679688 L 55.882812 50.40625 C 55.882812 50.40625 56.160156 50.175781 56.160156 49.679688 C 56.160156 49.1875 56.136719 42.480469 56.136719 42.480469 C 55.988281 41.832031 55.328125 41.042969 54.355469 41.042969 L 50.648438 41.042969 C 49.523438 41.042969 48.9375 41.863281 48.9375 42.628906 Z M 48.9375 49.679688 "/>
<path style=" stroke:none;fill-rule:nonzero;fill:url(#linear2);" d="M 69.296875 38.082031 C 67.753906 38.042969 66.570312 38.183594 65.5625 38.609375 C 65.277344 38.730469 64.816406 38.734375 64.769531 39.09375 C 64.925781 39.257812 64.953125 39.507812 65.078125 39.710938 C 65.316406 40.097656 65.726562 40.621094 66.089844 40.894531 C 66.484375 41.195312 66.894531 41.515625 67.320312 41.777344 C 68.074219 42.238281 68.921875 42.5 69.648438 42.964844 C 70.078125 43.234375 70.503906 43.578125 70.925781 43.886719 C 71.132812 44.039062 71.269531 44.273438 71.539062 44.371094 C 71.539062 44.355469 71.539062 44.339844 71.539062 44.328125 C 71.398438 44.148438 71.359375 43.898438 71.230469 43.710938 C 71.042969 43.519531 70.851562 43.328125 70.660156 43.136719 C 70.101562 42.398438 69.390625 41.746094 68.636719 41.203125 C 68.035156 40.773438 66.691406 40.191406 66.441406 39.492188 C 66.425781 39.476562 66.410156 39.460938 66.394531 39.445312 C 66.820312 39.398438 67.320312 39.242188 67.714844 39.136719 C 68.375 38.960938 68.964844 39.007812 69.648438 38.832031 C 69.953125 38.742188 70.261719 38.65625 70.570312 38.566406 C 70.570312 38.507812 70.570312 38.449219 70.570312 38.390625 C 70.222656 38.035156 69.976562 37.570312 69.601562 37.246094 C 68.617188 36.410156 67.542969 35.574219 66.4375 34.875 C 65.824219 34.488281 65.0625 34.234375 64.414062 33.90625 C 64.195312 33.796875 63.8125 33.738281 63.667969 33.554688 C 63.324219 33.121094 63.140625 32.566406 62.878906 32.0625 C 62.324219 31 61.78125 29.839844 61.292969 28.71875 C 60.960938 27.957031 60.742188 27.207031 60.328125 26.523438 C 58.332031 23.238281 56.179688 21.257812 52.855469 19.3125 C 52.144531 18.898438 51.292969 18.734375 50.390625 18.519531 C 49.90625 18.492188 49.421875 18.460938 48.9375 18.429688 C 48.644531 18.304688 48.335938 17.945312 48.058594 17.769531 C 46.957031 17.074219 44.128906 15.558594 43.3125 17.550781 C 42.796875 18.808594 44.082031 20.035156 44.542969 20.671875 C 44.863281 21.117188 45.277344 21.621094 45.511719 22.125 C 45.660156 22.453125 45.6875 22.785156 45.816406 23.132812 C 46.136719 23.996094 46.640625 24.976562 47.054688 25.773438 C 47.265625 26.175781 47.496094 26.597656 47.761719 26.960938 C 47.921875 27.179688 48.199219 27.277344 48.246094 27.621094 C 47.972656 28 47.957031 28.589844 47.804688 29.070312 C 47.117188 31.238281 47.378906 33.929688 48.375 35.535156 C 48.683594 36.027344 49.40625 37.082031 50.398438 36.675781 C 51.265625 36.324219 51.074219 35.226562 51.320312 34.257812 C 51.375 34.039062 51.34375 33.878906 51.453125 33.730469 C 51.453125 33.746094 51.453125 33.761719 51.453125 33.777344 C 51.71875 34.304688 51.980469 34.832031 52.246094 35.359375 C 52.832031 36.304688 53.871094 37.289062 54.75 37.953125 C 55.207031 38.300781 55.566406 38.898438 56.15625 39.097656 C 56.15625 39.082031 56.15625 39.070312 56.15625 39.050781 C 56.140625 39.050781 56.128906 39.050781 56.113281 39.050781 C 55.996094 38.875 55.816406 38.800781 55.671875 38.65625 C 55.328125 38.320312 54.945312 37.902344 54.660156 37.511719 C 53.859375 36.425781 53.152344 35.234375 52.507812 33.996094 C 52.199219 33.402344 51.929688 32.753906 51.671875 32.148438 C 51.570312 31.917969 51.574219 31.566406 51.363281 31.445312 C 51.078125 31.886719 50.664062 32.242188 50.441406 32.765625 C 50.089844 33.597656 50.042969 34.613281 49.914062 35.664062 C 49.835938 35.691406 49.871094 35.675781 49.828125 35.710938 C 49.214844 35.558594 49 34.933594 48.769531 34.390625 C 48.195312 33.023438 48.089844 30.820312 48.59375 29.246094 C 48.726562 28.839844 49.320312 27.554688 49.078125 27.179688 C 48.964844 26.804688 48.589844 26.585938 48.378906 26.300781 C 48.117188 25.945312 47.855469 25.476562 47.675781 25.066406 C 47.203125 24 46.757812 22.761719 46.261719 21.683594 C 46.023438 21.167969 45.621094 20.644531 45.292969 20.1875 C 44.929688 19.679688 44.519531 19.308594 44.238281 18.695312 C 44.136719 18.476562 44 18.128906 44.148438 17.902344 C 44.195312 17.75 44.261719 17.6875 44.410156 17.636719 C 44.667969 17.441406 45.375 17.703125 45.644531 17.8125 C 46.347656 18.105469 46.9375 18.386719 47.535156 18.78125 C 47.820312 18.972656 48.109375 19.339844 48.457031 19.441406 C 48.589844 19.441406 48.71875 19.441406 48.851562 19.441406 C 49.472656 19.585938 50.164062 19.488281 50.742188 19.660156 C 51.765625 19.972656 52.679688 20.457031 53.511719 20.980469 C 56.046875 22.582031 58.117188 24.859375 59.535156 27.574219 C 59.761719 28.015625 59.863281 28.429688 60.0625 28.894531 C 60.464844 29.832031 60.976562 30.792969 61.378906 31.707031 C 61.78125 32.621094 62.175781 33.542969 62.742188 34.304688 C 63.042969 34.703125 64.199219 34.917969 64.722656 35.140625 C 65.089844 35.296875 65.691406 35.457031 66.039062 35.664062 C 66.707031 36.066406 67.351562 36.546875 67.972656 36.984375 C 68.292969 37.203125 69.25 37.6875 69.296875 38.082031 Z M 69.296875 38.082031 "/>
<path style=" stroke:none;fill-rule:nonzero;fill:rgb(0%,47.450981%,41.960785%);fill-opacity:1;" d="M 49.648438 21.335938 C 49.324219 21.328125 49.097656 21.367188 48.855469 21.421875 C 48.855469 21.4375 48.855469 21.453125 48.855469 21.46875 C 48.871094 21.46875 48.882812 21.46875 48.898438 21.46875 C 49.054688 21.78125 49.324219 21.988281 49.515625 22.261719 C 49.660156 22.566406 49.808594 22.875 49.953125 23.183594 C 49.96875 23.167969 49.984375 23.152344 49.996094 23.140625 C 50.269531 22.945312 50.394531 22.640625 50.394531 22.171875 C 50.285156 22.054688 50.269531 21.910156 50.171875 21.777344 C 50.046875 21.589844 49.804688 21.488281 49.648438 21.335938 Z M 49.648438 21.335938 "/>
</g>
</svg>
