<?xml version="1.0" encoding="UTF-8"?>
<svg xmlns="http://www.w3.org/2000/svg" xmlns:xlink="http://www.w3.org/1999/xlink" width="72pt" height="72pt" viewBox="0 0 72 72" version="1.1">
<g id="surface19581">
<path style=" stroke:none;fill-rule:nonzero;fill:rgb(100%,42.745098%,0%);fill-opacity:1;" d="M 9 15 C 9 11.6875 11.6875 9 15 9 L 57 9 C 60.3125 9 63 11.6875 63 15 L 63 57 C 63 60.3125 60.3125 63 57 63 L 15 63 C 11.6875 63 9 60.3125 9 57 Z M 9 15 "/>
<path style=" stroke:none;fill-rule:nonzero;fill:rgb(90.196079%,29.019609%,9.803922%);fill-opacity:1;" d="M 9 15 L 9 32.949219 L 15 38.949219 C 15 38.949219 31.730469 58.273438 45 45 C 58.269531 31.726562 39.027344 16.5 39.027344 16.5 L 31.519531 9 L 15 9 C 11.6875 9 9 11.683594 9 15 Z M 9 15 "/>
<path style=" stroke:none;fill-rule:nonzero;fill:rgb(100%,100%,100%);fill-opacity:1;" d="M 39.027344 16.5 C 56.171875 28.046875 50.625 40.78125 50.625 40.78125 C 50.625 40.78125 55.5 46.230469 53.53125 51 C 53.53125 51 51.519531 47.660156 48.148438 47.660156 C 44.898438 47.660156 42.988281 51 36.449219 51 C 21.886719 51 15 38.949219 15 38.949219 C 28.121094 47.5 37.078125 41.445312 37.078125 41.445312 C 31.167969 38.046875 18 21 18 21 C 28.949219 30.234375 34.5 33 34.5 33 C 31.675781 30.6875 22.5 19.5 22.5 19.5 C 28.835938 25.855469 42.460938 35.066406 42.460938 35.066406 C 46.035156 25.25 39.027344 16.5 39.027344 16.5 Z M 39.027344 16.5 "/>
</g>
</svg>
