<?xml version="1.0" encoding="UTF-8"?>
<svg xmlns="http://www.w3.org/2000/svg" xmlns:xlink="http://www.w3.org/1999/xlink" width="108pt" height="108pt" viewBox="0 0 108 108" version="1.1">
<g id="surface19605">
<path style=" stroke:none;fill-rule:nonzero;fill:rgb(100%,42.745098%,0%);fill-opacity:1;" d="M 13.5 22.5 C 13.5 17.53125 17.53125 13.5 22.5 13.5 L 85.5 13.5 C 90.46875 13.5 94.5 17.53125 94.5 22.5 L 94.5 85.5 C 94.5 90.46875 90.46875 94.5 85.5 94.5 L 22.5 94.5 C 17.53125 94.5 13.5 90.46875 13.5 85.5 Z M 13.5 22.5 "/>
<path style=" stroke:none;fill-rule:nonzero;fill:rgb(90.196079%,29.019609%,9.803922%);fill-opacity:1;" d="M 13.5 22.5 L 13.5 49.425781 L 22.5 58.425781 C 22.5 58.425781 47.59375 87.40625 67.5 67.5 C 87.40625 47.59375 58.542969 24.75 58.542969 24.75 L 47.28125 13.5 L 22.5 13.5 C 17.53125 13.5 13.5 17.527344 13.5 22.5 Z M 13.5 22.5 "/>
<path style=" stroke:none;fill-rule:nonzero;fill:rgb(100%,100%,100%);fill-opacity:1;" d="M 58.542969 24.75 C 84.257812 42.070312 75.941406 61.171875 75.941406 61.171875 C 75.941406 61.171875 83.253906 69.347656 80.296875 76.5 C 80.296875 76.5 77.28125 71.492188 72.222656 71.492188 C 67.347656 71.492188 64.484375 76.5 54.671875 76.5 C 32.828125 76.5 22.5 58.425781 22.5 58.425781 C 42.179688 71.25 55.617188 62.167969 55.617188 62.167969 C 46.75 57.070312 27 31.5 27 31.5 C 43.421875 45.347656 51.75 49.5 51.75 49.5 C 47.515625 46.03125 33.75 29.25 33.75 29.25 C 43.253906 38.785156 63.691406 52.601562 63.691406 52.601562 C 69.054688 37.875 58.542969 24.75 58.542969 24.75 Z M 58.542969 24.75 "/>
</g>
</svg>
