<?xml version="1.0" encoding="UTF-8"?>
<svg xmlns="http://www.w3.org/2000/svg" xmlns:xlink="http://www.w3.org/1999/xlink" width="36pt" height="36pt" viewBox="0 0 36 36" version="1.1">
<g id="surface19557">
<path style=" stroke:none;fill-rule:nonzero;fill:rgb(100%,42.745098%,0%);fill-opacity:1;" d="M 4.5 7.5 C 4.5 5.84375 5.84375 4.5 7.5 4.5 L 28.5 4.5 C 30.15625 4.5 31.5 5.84375 31.5 7.5 L 31.5 28.5 C 31.5 30.15625 30.15625 31.5 28.5 31.5 L 7.5 31.5 C 5.84375 31.5 4.5 30.15625 4.5 28.5 Z M 4.5 7.5 "/>
<path style=" stroke:none;fill-rule:nonzero;fill:rgb(90.196079%,29.019609%,9.803922%);fill-opacity:1;" d="M 4.5 7.5 L 4.5 16.476562 L 7.5 19.476562 C 7.5 19.476562 15.863281 29.136719 22.5 22.5 C 29.136719 15.863281 19.515625 8.25 19.515625 8.25 L 15.761719 4.5 L 7.5 4.5 C 5.84375 4.5 4.5 5.84375 4.5 7.5 Z M 4.5 7.5 "/>
<path style=" stroke:none;fill-rule:nonzero;fill:rgb(100%,100%,100%);fill-opacity:1;" d="M 19.515625 8.25 C 28.085938 14.023438 25.3125 20.390625 25.3125 20.390625 C 25.3125 20.390625 27.75 23.117188 26.765625 25.5 C 26.765625 25.5 25.761719 23.832031 24.074219 23.832031 C 22.449219 23.832031 21.496094 25.5 18.222656 25.5 C 10.941406 25.5 7.5 19.476562 7.5 19.476562 C 14.058594 23.75 18.539062 20.722656 18.539062 20.722656 C 15.582031 19.023438 9 10.5 9 10.5 C 14.472656 15.117188 17.25 16.5 17.25 16.5 C 15.839844 15.34375 11.25 9.75 11.25 9.75 C 14.417969 12.929688 21.230469 17.535156 21.230469 17.535156 C 23.019531 12.625 19.515625 8.25 19.515625 8.25 Z M 19.515625 8.25 "/>
</g>
</svg>
