<?xml version="1.0" encoding="UTF-8"?>
<svg xmlns="http://www.w3.org/2000/svg" xmlns:xlink="http://www.w3.org/1999/xlink" width="108pt" height="108pt" viewBox="0 0 108 108" version="1.1">
<g id="surface14015">
<path style=" stroke:none;fill-rule:nonzero;fill:rgb(100%,83.92157%,0%);fill-opacity:1;" d="M 13.5 94.5 L 13.5 13.5 L 94.5 13.5 L 94.5 94.5 Z M 13.5 94.5 "/>
<path style=" stroke:none;fill-rule:nonzero;fill:rgb(0%,0%,0.392157%);fill-opacity:1;" d="M 66.460938 74.128906 C 68.015625 76.660156 69.710938 79.082031 73.292969 79.082031 C 76.304688 79.082031 77.882812 77.585938 77.882812 75.515625 C 77.882812 73.039062 76.25 72.160156 72.9375 70.71875 L 71.121094 69.945312 C 65.882812 67.71875 62.398438 64.933594 62.398438 59.050781 C 62.398438 53.628906 66.546875 49.503906 73.035156 49.503906 C 77.652344 49.503906 80.972656 51.101562 83.367188 55.292969 L 77.710938 58.90625 C 76.464844 56.683594 75.121094 55.808594 73.035156 55.808594 C 70.90625 55.808594 69.558594 57.152344 69.558594 58.90625 C 69.558594 61.078125 70.910156 61.953125 74.023438 63.296875 L 75.839844 64.070312 C 82.015625 66.703125 85.5 69.386719 85.5 75.425781 C 85.5 81.933594 80.359375 85.5 73.460938 85.5 C 66.714844 85.5 62.882812 82.113281 60.75 77.921875 Z M 66.460938 74.128906 "/>
<path style=" stroke:none;fill-rule:nonzero;fill:rgb(0%,0%,0.392157%);fill-opacity:1;" d="M 40.390625 74.316406 C 41.53125 76.355469 43.261719 77.921875 45.75 77.921875 C 48.128906 77.921875 49.5 76.980469 49.5 73.324219 L 49.5 49.5 L 57 49.5 L 57 74.476562 C 57 82.054688 52.605469 85.5 46.1875 85.5 C 40.390625 85.5 36.203125 81.570312 34.5 77.921875 Z M 40.390625 74.316406 "/>
</g>
</svg>
