<?xml version="1.0" encoding="UTF-8"?>
<svg xmlns="http://www.w3.org/2000/svg" xmlns:xlink="http://www.w3.org/1999/xlink" width="72pt" height="72pt" viewBox="0 0 72 72" version="1.1">
<g id="surface13991">
<path style=" stroke:none;fill-rule:nonzero;fill:rgb(100%,83.92157%,0%);fill-opacity:1;" d="M 9 63 L 9 9 L 63 9 L 63 63 Z M 9 63 "/>
<path style=" stroke:none;fill-rule:nonzero;fill:rgb(0%,0%,0.392157%);fill-opacity:1;" d="M 44.308594 49.421875 C 45.34375 51.105469 46.472656 52.722656 48.863281 52.722656 C 50.871094 52.722656 51.921875 51.722656 51.921875 50.34375 C 51.921875 48.691406 50.832031 48.105469 48.625 47.144531 L 47.414062 46.628906 C 43.921875 45.148438 41.597656 43.289062 41.597656 39.367188 C 41.597656 35.753906 44.367188 33 48.691406 33 C 51.769531 33 53.980469 34.066406 55.578125 36.859375 L 51.808594 39.273438 C 50.976562 37.789062 50.082031 37.207031 48.691406 37.207031 C 47.269531 37.207031 46.371094 38.101562 46.371094 39.273438 C 46.371094 40.71875 47.273438 41.300781 49.351562 42.199219 L 50.558594 42.714844 C 54.679688 44.46875 57 46.257812 57 50.285156 C 57 54.621094 53.574219 57 48.976562 57 C 44.476562 57 41.921875 54.742188 40.5 51.949219 Z M 44.308594 49.421875 "/>
<path style=" stroke:none;fill-rule:nonzero;fill:rgb(0%,0%,0.392157%);fill-opacity:1;" d="M 26.929688 49.542969 C 27.6875 50.902344 28.839844 51.949219 30.5 51.949219 C 32.085938 51.949219 33 51.320312 33 48.882812 L 33 33 L 38 33 L 38 49.652344 C 38 54.703125 35.070312 57 30.792969 57 C 26.925781 57 24.136719 54.382812 23 51.949219 Z M 26.929688 49.542969 "/>
</g>
</svg>
