<?xml version="1.0" encoding="UTF-8"?>
<svg xmlns="http://www.w3.org/2000/svg" xmlns:xlink="http://www.w3.org/1999/xlink" width="36pt" height="36pt" viewBox="0 0 36 36" version="1.1">
<g id="surface13967">
<path style=" stroke:none;fill-rule:nonzero;fill:rgb(100%,83.92157%,0%);fill-opacity:1;" d="M 4.5 31.5 L 4.5 4.5 L 31.5 4.5 L 31.5 31.5 Z M 4.5 31.5 "/>
<path style=" stroke:none;fill-rule:nonzero;fill:rgb(0%,0%,0.392157%);fill-opacity:1;" d="M 22.152344 24.710938 C 22.671875 25.554688 23.238281 26.359375 24.429688 26.359375 C 25.433594 26.359375 25.960938 25.863281 25.960938 25.171875 C 25.960938 24.347656 25.417969 24.054688 24.3125 23.574219 L 23.707031 23.316406 C 21.960938 22.574219 20.800781 21.644531 20.800781 19.683594 C 20.800781 17.875 22.183594 16.5 24.34375 16.5 C 25.882812 16.5 26.992188 17.035156 27.789062 18.429688 L 25.902344 19.636719 C 25.488281 18.894531 25.039062 18.601562 24.34375 18.601562 C 23.636719 18.601562 23.1875 19.050781 23.1875 19.636719 C 23.1875 20.359375 23.636719 20.652344 24.675781 21.097656 L 25.28125 21.355469 C 27.339844 22.234375 28.5 23.128906 28.5 25.140625 C 28.5 27.3125 26.785156 28.5 24.488281 28.5 C 22.238281 28.5 20.960938 27.371094 20.25 25.972656 Z M 22.152344 24.710938 "/>
<path style=" stroke:none;fill-rule:nonzero;fill:rgb(0%,0%,0.392157%);fill-opacity:1;" d="M 13.464844 24.773438 C 13.84375 25.453125 14.421875 25.972656 15.25 25.972656 C 16.042969 25.972656 16.5 25.660156 16.5 24.441406 L 16.5 16.5 L 19 16.5 L 19 24.824219 C 19 27.351562 17.535156 28.5 15.394531 28.5 C 13.464844 28.5 12.066406 27.191406 11.5 25.972656 Z M 13.464844 24.773438 "/>
</g>
</svg>
