<?xml version="1.0" encoding="UTF-8"?>
<svg xmlns="http://www.w3.org/2000/svg" xmlns:xlink="http://www.w3.org/1999/xlink" width="37.5pt" height="37.5pt" viewBox="0 0 37.5 37.5" version="1.1">
<g id="surface32692">
<path style="fill:none;stroke-width:2;stroke-linecap:butt;stroke-linejoin:miter;stroke:rgb(100%,100%,100%);stroke-opacity:1;stroke-miterlimit:10;" d="M 4.998944 4.998944 L 45.001056 4.998944 L 45.001056 45.001056 L 4.998944 45.001056 Z M 4.998944 4.998944 " transform="matrix(0.74,0,0,0.74,0,0)"/>
<path style=" stroke:none;fill-rule:nonzero;fill:rgb(100%,100%,100%);fill-opacity:1;" d="M 5.921875 5.921875 L 5.921875 31.078125 L 31.078125 31.078125 L 31.078125 5.921875 Z M 17.761719 25.898438 C 18.855469 25.886719 19.804688 25.140625 20.066406 24.078125 C 20.226562 23.429688 20.410156 22.292969 20.636719 20.71875 L 18.5 20.71875 L 18.5 19.238281 L 25.898438 19.238281 L 25.898438 20.71875 L 24.34375 20.71875 C 24.066406 22.464844 23.847656 23.5625 23.664062 24.265625 C 23.382812 25.339844 22.652344 26.261719 21.632812 26.703125 C 20.664062 27.121094 19.390625 27.378906 17.761719 27.378906 C 13.320312 27.378906 10.359375 24.480469 10.359375 19.980469 C 10.359375 14.261719 13.851562 9.621094 19.980469 9.621094 C 23.679688 9.621094 24.894531 10.410156 25.898438 11.101562 L 25.160156 14.800781 L 23.679688 14.800781 C 23.679688 12.757812 22.679688 11.101562 20.535156 11.101562 C 17.019531 11.101562 14.058594 14.800781 14.058594 19.980469 C 14.058594 23.679688 15.539062 25.898438 17.761719 25.898438 Z M 17.761719 25.898438 "/>
</g>
</svg>
