<?xml version="1.0" encoding="UTF-8"?>
<svg xmlns="http://www.w3.org/2000/svg" xmlns:xlink="http://www.w3.org/1999/xlink" width="112.5pt" height="112.5pt" viewBox="0 0 112.5 112.5" version="1.1">
<g id="surface32746">
<path style="fill:none;stroke-width:2;stroke-linecap:butt;stroke-linejoin:miter;stroke:rgb(100%,100%,100%);stroke-opacity:1;stroke-miterlimit:10;" d="M 4.999651 4.999651 L 45.000349 4.999651 L 45.000349 45.000349 L 4.999651 45.000349 Z M 4.999651 4.999651 " transform="matrix(2.24,0,0,2.24,-0.000000000000007105,-0.000000000000007105)"/>
<path style=" stroke:none;fill-rule:nonzero;fill:rgb(100%,100%,100%);fill-opacity:1;" d="M 17.921875 17.921875 L 17.921875 94.078125 L 94.078125 94.078125 L 94.078125 17.921875 Z M 53.761719 78.398438 C 57.074219 78.359375 59.945312 76.097656 60.742188 72.878906 C 61.226562 70.925781 61.777344 67.480469 62.464844 62.71875 L 56 62.71875 L 56 58.238281 L 78.398438 58.238281 L 78.398438 62.71875 L 73.6875 62.71875 C 72.855469 68 72.1875 71.320312 71.628906 73.453125 C 70.78125 76.703125 68.570312 79.5 65.488281 80.832031 C 62.550781 82.097656 58.699219 82.878906 53.761719 82.878906 C 40.320312 82.878906 31.359375 74.097656 31.359375 60.480469 C 31.359375 43.164062 41.933594 29.121094 60.480469 29.121094 C 71.679688 29.121094 75.355469 31.515625 78.398438 33.601562 L 76.160156 44.800781 L 71.679688 44.800781 C 71.679688 38.617188 68.65625 33.601562 62.160156 33.601562 C 51.519531 33.601562 42.558594 44.800781 42.558594 60.480469 C 42.558594 71.679688 47.039062 78.398438 53.761719 78.398438 Z M 53.761719 78.398438 "/>
</g>
</svg>
