<?xml version="1.0" encoding="UTF-8"?>
<svg xmlns="http://www.w3.org/2000/svg" xmlns:xlink="http://www.w3.org/1999/xlink" width="72pt" height="72pt" viewBox="0 0 72 72" version="1.1">
<g id="surface22782">
<path style=" stroke:none;fill-rule:nonzero;fill:rgb(100%,100%,100%);fill-opacity:1;" d="M 30.164062 27.289062 L 25.75 34.269531 L 20.847656 27.160156 C 20.09375 26.117188 18.886719 25.5 17.605469 25.5 L 17.503906 25.5 C 15.289062 25.5 13.5 27.289062 13.5 29.503906 L 13.5 43.5 C 13.5 45.15625 14.84375 46.5 16.5 46.5 C 18.15625 46.5 19.5 45.15625 19.5 43.5 L 19.5 32.570312 L 23.347656 37.78125 C 24.542969 39.402344 26.964844 39.40625 28.167969 37.792969 L 31.5 33.320312 L 31.5 43.5 C 31.5 45.15625 32.84375 46.5 34.5 46.5 C 36.15625 46.5 37.5 45.15625 37.5 43.5 L 37.5 29.503906 C 37.5 27.289062 35.710938 25.5 33.496094 25.5 C 32.15625 25.5 30.90625 26.171875 30.164062 27.289062 Z M 30.164062 27.289062 "/>
<path style=" stroke:none;fill-rule:nonzero;fill:rgb(100%,100%,100%);fill-opacity:1;" d="M 56.195312 36 L 54 36 L 54 28.5 C 54 26.84375 52.65625 25.5 51 25.5 C 49.34375 25.5 48 26.84375 48 28.5 L 48 36 L 45.804688 36 C 43.847656 36 42.796875 38.292969 44.066406 39.777344 L 49.070312 45.613281 C 50.082031 46.796875 51.914062 46.796875 52.929688 45.613281 L 57.933594 39.777344 C 59.203125 38.292969 58.152344 36 56.195312 36 Z M 56.195312 36 "/>
<path style="fill:none;stroke-width:3;stroke-linecap:round;stroke-linejoin:round;stroke:rgb(100%,100%,100%);stroke-opacity:1;stroke-miterlimit:20;" d="M 40.5 36.5 L 7.5 36.5 C 5.291667 36.5 3.5 34.708333 3.5 32.5 L 3.5 15.5 C 3.5 13.291667 5.291667 11.5 7.5 11.5 L 40.5 11.5 C 42.708333 11.5 44.5 13.291667 44.5 15.5 L 44.5 32.5 C 44.5 34.708333 42.708333 36.5 40.5 36.5 Z M 40.5 36.5 " transform="matrix(1.5,0,0,1.5,0,0)"/>
</g>
</svg>
