<?xml version="1.0" encoding="UTF-8"?>
<svg xmlns="http://www.w3.org/2000/svg" xmlns:xlink="http://www.w3.org/1999/xlink" width="108pt" height="108pt" viewBox="0 0 108 108" version="1.1">
<g id="surface22806">
<path style=" stroke:none;fill-rule:nonzero;fill:rgb(100%,100%,100%);fill-opacity:1;" d="M 45.246094 40.9375 L 38.625 51.40625 L 31.273438 40.738281 C 30.144531 39.175781 28.332031 38.25 26.40625 38.25 L 26.253906 38.25 C 22.9375 38.25 20.25 40.9375 20.25 44.253906 L 20.25 65.25 C 20.25 67.734375 22.265625 69.75 24.75 69.75 C 27.234375 69.75 29.25 67.734375 29.25 65.25 L 29.25 48.855469 L 35.019531 56.671875 C 36.816406 59.101562 40.445312 59.109375 42.25 56.6875 L 47.25 49.980469 L 47.25 65.25 C 47.25 67.734375 49.265625 69.75 51.75 69.75 C 54.234375 69.75 56.25 67.734375 56.25 65.25 L 56.25 44.253906 C 56.25 40.9375 53.5625 38.25 50.246094 38.25 C 48.234375 38.25 46.355469 39.257812 45.246094 40.9375 Z M 45.246094 40.9375 "/>
<path style=" stroke:none;fill-rule:nonzero;fill:rgb(100%,100%,100%);fill-opacity:1;" d="M 84.292969 54 L 81 54 L 81 42.75 C 81 40.265625 78.984375 38.25 76.5 38.25 C 74.015625 38.25 72 40.265625 72 42.75 L 72 54 L 68.707031 54 C 65.773438 54 64.195312 57.4375 66.101562 59.664062 L 73.605469 68.417969 C 75.125 70.191406 77.871094 70.191406 79.394531 68.417969 L 86.898438 59.664062 C 88.808594 57.4375 87.226562 54 84.292969 54 Z M 84.292969 54 "/>
<path style="fill:none;stroke-width:3;stroke-linecap:round;stroke-linejoin:round;stroke:rgb(100%,100%,100%);stroke-opacity:1;stroke-miterlimit:20;" d="M 40.5 36.5 L 7.5 36.5 C 5.291667 36.5 3.5 34.708333 3.5 32.5 L 3.5 15.5 C 3.5 13.291667 5.291667 11.5 7.5 11.5 L 40.5 11.5 C 42.708333 11.5 44.5 13.291667 44.5 15.5 L 44.5 32.5 C 44.5 34.708333 42.708333 36.5 40.5 36.5 Z M 40.5 36.5 " transform="matrix(2.25,0,0,2.25,0,0)"/>
</g>
</svg>
