<?xml version="1.0" encoding="UTF-8"?>
<svg xmlns="http://www.w3.org/2000/svg" xmlns:xlink="http://www.w3.org/1999/xlink" width="36pt" height="36pt" viewBox="0 0 36 36" version="1.1">
<g id="surface22754">
<path style=" stroke:none;fill-rule:nonzero;fill:rgb(100%,100%,100%);fill-opacity:1;" d="M 15.082031 13.644531 L 12.875 17.136719 L 10.425781 13.578125 C 10.046875 13.058594 9.445312 12.75 8.800781 12.75 L 8.75 12.75 C 7.644531 12.75 6.75 13.644531 6.75 14.75 L 6.75 21.75 C 6.75 22.578125 7.421875 23.25 8.25 23.25 C 9.078125 23.25 9.75 22.578125 9.75 21.75 L 9.75 16.285156 L 11.671875 18.890625 C 12.273438 19.699219 13.480469 19.703125 14.082031 18.894531 L 15.75 16.660156 L 15.75 21.75 C 15.75 22.578125 16.421875 23.25 17.25 23.25 C 18.078125 23.25 18.75 22.578125 18.75 21.75 L 18.75 14.75 C 18.75 13.644531 17.855469 12.75 16.75 12.75 C 16.078125 12.75 15.453125 13.085938 15.082031 13.644531 Z M 15.082031 13.644531 "/>
<path style=" stroke:none;fill-rule:nonzero;fill:rgb(100%,100%,100%);fill-opacity:1;" d="M 28.097656 18 L 27 18 L 27 14.25 C 27 13.421875 26.328125 12.75 25.5 12.75 C 24.671875 12.75 24 13.421875 24 14.25 L 24 18 L 22.902344 18 C 21.925781 18 21.398438 19.144531 22.035156 19.886719 L 24.535156 22.804688 C 25.042969 23.398438 25.957031 23.398438 26.464844 22.804688 L 28.964844 19.886719 C 29.601562 19.144531 29.074219 18 28.097656 18 Z M 28.097656 18 "/>
<path style="fill:none;stroke-width:3;stroke-linecap:round;stroke-linejoin:round;stroke:rgb(100%,100%,100%);stroke-opacity:1;stroke-miterlimit:20;" d="M 40.5 36.5 L 7.5 36.5 C 5.291667 36.5 3.5 34.708333 3.5 32.5 L 3.5 15.5 C 3.5 13.291667 5.291667 11.5 7.5 11.5 L 40.5 11.5 C 42.708333 11.5 44.5 13.291667 44.5 15.5 L 44.5 32.5 C 44.5 34.708333 42.708333 36.5 40.5 36.5 Z M 40.5 36.5 " transform="matrix(0.75,0,0,0.75,0,0)"/>
</g>
</svg>
